<?xml version="1.0" standalone="no"?>
<!DOCTYPE svg PUBLIC "-//W3C//DTD SVG 20010904//EN"
 "http://www.w3.org/TR/2001/REC-SVG-20010904/DTD/svg10.dtd">
<svg version="1.0" xmlns="http://www.w3.org/2000/svg"
 width="900.000000pt" height="900.000000pt" viewBox="0 0 900.000000 900.000000"
 preserveAspectRatio="xMidYMid meet">
<metadata>
Created by potrace 1.14, written by Peter Selinger 2001-2017
</metadata>
<g transform="translate(0.000000,900.000000) scale(0.100000,-0.100000)"
fill="#000000" stroke="none">
<path d="M4426 8527 c5 -14 -52 -17 -74 -3 -7 4 -12 2 -12 -6 0 -8 -3 -9 -8
-2 -8 12 -81 12 -101 0 -11 -7 -12 -6 -5 5 6 10 0 9 -19 -4 -23 -15 -26 -15
-20 -1 5 14 3 15 -15 5 -17 -9 -22 -9 -22 1 0 9 -3 10 -8 2 -4 -6 -15 -10 -25
-8 -9 1 -15 -1 -12 -6 3 -4 -2 -11 -11 -14 -21 -8 -24 -8 -24 5 0 5 4 8 8 5 5
-3 9 1 9 8 0 11 -4 12 -18 3 -10 -6 -17 -15 -16 -20 1 -5 -5 -12 -13 -14 -13
-4 -13 -3 0 6 13 9 13 11 -2 11 -9 0 -19 -6 -21 -12 -4 -10 -6 -10 -6 0 -1 6
-6 12 -12 12 -5 0 -8 -4 -5 -9 3 -4 -6 -6 -19 -3 -14 2 -33 -2 -42 -9 -12 -10
-14 -10 -9 -1 4 6 2 12 -3 12 -6 0 -11 -6 -11 -12 0 -8 -3 -9 -8 -3 -11 15
-35 12 -65 -8 -15 -10 -27 -13 -27 -7 0 5 5 10 10 10 6 0 10 5 10 11 0 8 -4 8
-13 0 -10 -7 -17 -7 -24 0 -8 8 -13 7 -18 -2 -5 -7 -4 -10 2 -6 6 4 13 0 16
-7 4 -11 0 -13 -16 -10 -12 3 -28 5 -34 5 -44 -4 -53 -6 -53 -12 0 -3 -18 -6
-40 -5 -22 1 -46 -2 -53 -7 -8 -6 -7 -7 5 -3 10 3 20 0 24 -7 4 -7 4 -9 -1 -5
-4 4 -16 3 -26 -3 -13 -6 -19 -6 -19 0 0 6 -7 8 -15 5 -8 -4 -12 -10 -9 -15 3
-5 -2 -6 -10 -3 -9 3 -16 11 -16 18 -1 6 -10 0 -20 -13 -11 -13 -20 -18 -20
-11 0 9 -3 10 -13 1 -8 -6 -17 -8 -20 -4 -4 3 -7 -1 -7 -10 0 -9 -4 -19 -10
-22 -5 -3 -7 0 -4 8 3 8 0 18 -6 22 -6 3 -9 1 -8 -6 2 -6 -3 -14 -11 -17 -9
-3 -11 0 -6 8 6 9 4 11 -4 6 -7 -5 -10 -14 -8 -20 5 -13 -27 -15 -39 -4 -10
10 -35 -3 -27 -15 3 -6 1 -7 -6 -3 -6 4 -19 2 -27 -5 -8 -6 -17 -9 -21 -5 -3
3 -17 -1 -31 -10 -13 -9 -22 -12 -19 -7 4 5 0 10 -8 10 -8 0 -12 -4 -9 -9 3
-4 -2 -8 -10 -8 -9 0 -16 5 -16 12 0 6 -3 8 -6 5 -4 -4 -1 -13 6 -22 11 -13
10 -14 -5 -9 -12 5 -16 4 -11 -4 3 -6 1 -14 -5 -18 -7 -4 -9 -3 -6 3 4 6 -4
11 -18 11 -14 0 -22 -5 -19 -10 4 -6 -4 -4 -17 3 -23 12 -23 11 -9 -6 14 -17
14 -18 -9 -6 -19 11 -22 11 -16 0 6 -9 3 -10 -10 -5 -15 5 -16 4 -6 -8 11 -13
9 -15 -8 -11 -12 2 -21 -1 -22 -8 0 -7 -4 -3 -9 8 -5 11 -9 14 -9 6 -1 -8 -7
-11 -17 -7 -14 5 -15 4 -5 -8 9 -11 8 -14 -6 -12 -10 0 -17 -5 -15 -12 1 -8
-2 -11 -8 -7 -6 3 -7 12 -4 18 4 7 -3 2 -15 -10 -24 -25 -37 -30 -25 -10 6 8
3 8 -9 -1 -9 -8 -21 -11 -26 -8 -6 4 -8 -2 -6 -15 4 -18 2 -19 -12 -7 -9 7
-14 8 -10 2 4 -7 0 -15 -9 -18 -8 -3 -13 -2 -10 2 3 5 -1 9 -9 9 -8 0 -12 -5
-8 -10 3 -5 -4 -6 -18 -2 -23 7 -24 7 -4 -9 20 -15 20 -15 -2 -11 -14 2 -26
-3 -33 -13 -7 -13 -9 -14 -10 -3 0 11 -4 10 -16 -5 -8 -10 -13 -14 -10 -7 7
13 -19 12 -31 -2 -4 -4 -2 -5 5 -1 21 13 13 -9 -9 -23 -20 -12 -21 -11 -15 6
6 17 5 17 -7 1 -8 -10 -17 -15 -20 -11 -7 6 -11 -12 -8 -30 1 -5 -3 -6 -8 -3
-5 4 -12 2 -16 -4 -4 -7 -13 -6 -27 1 -14 7 -18 7 -14 0 8 -12 -50 -45 -64
-36 -6 3 -10 -1 -10 -9 0 -10 -7 -13 -21 -11 -17 4 -19 2 -8 -11 6 -8 9 -17 5
-21 -3 -3 -6 -2 -6 4 0 6 -11 10 -24 9 -13 0 -22 -5 -18 -10 3 -5 -2 -7 -10
-3 -12 4 -14 1 -11 -14 4 -15 2 -18 -11 -13 -9 3 -16 1 -16 -6 0 -6 -4 -8 -10
-5 -6 3 -10 1 -10 -6 0 -8 -5 -7 -17 2 -15 13 -15 12 -3 -11 12 -23 12 -24 -4
-11 -15 12 -17 12 -14 0 2 -9 -4 -13 -16 -11 -10 2 -15 -1 -12 -6 3 -6 -6 -17
-20 -27 -20 -13 -28 -14 -40 -4 -8 7 -14 8 -12 3 5 -15 -30 -57 -41 -49 -6 3
-11 1 -11 -5 0 -6 -4 -9 -9 -6 -5 4 -7 -4 -4 -16 4 -19 3 -20 -6 -8 -10 14
-16 7 -12 -14 1 -5 -5 -4 -13 3 -13 11 -15 10 -11 -8 2 -11 -1 -24 -7 -27 -7
-4 -8 -2 -4 4 10 16 -7 15 -23 0 -11 -11 -12 -10 -6 1 6 10 4 12 -4 7 -7 -5
-10 -14 -7 -22 3 -7 0 -16 -6 -20 -7 -4 -8 -3 -4 4 4 7 2 12 -3 12 -6 0 -11
-7 -11 -15 0 -8 -6 -12 -14 -9 -8 3 -17 0 -22 -7 -4 -8 -3 -10 4 -5 8 4 10 2
6 -8 -3 -8 -11 -13 -18 -10 -7 3 -19 -3 -27 -12 -12 -15 -12 -17 0 -9 10 5 12
4 7 -3 -4 -7 -14 -12 -22 -12 -8 0 -14 -5 -14 -11 0 -5 -4 -7 -10 -4 -5 3 -10
1 -10 -5 0 -6 -4 -9 -8 -6 -12 7 -52 -40 -44 -50 4 -5 -2 -2 -12 6 -18 13 -19
13 -14 -2 8 -19 -25 -53 -41 -43 -7 4 -8 0 -5 -10 5 -12 2 -16 -12 -13 -10 2
-19 -3 -20 -9 -1 -7 -2 -17 -3 -23 0 -5 -6 -10 -12 -10 -5 0 -7 6 -3 13 4 7 3
9 -2 4 -9 -9 -10 -13 -13 -42 0 -8 -7 -12 -16 -9 -8 4 -15 1 -15 -6 0 -6 -5
-8 -12 -4 -8 5 -9 2 -5 -10 4 -9 3 -15 -2 -12 -4 3 -17 -2 -27 -10 -10 -9 -13
-12 -5 -8 9 4 12 2 9 -7 -3 -8 -14 -12 -24 -11 -10 2 -16 1 -12 -4 4 -4 0 -13
-10 -21 -9 -8 -11 -11 -3 -7 9 4 12 3 7 -4 -4 -6 -14 -8 -23 -5 -12 5 -15 2
-10 -9 8 -23 -25 -52 -42 -35 -10 9 -11 6 -7 -15 2 -15 0 -31 -6 -34 -7 -4 -8
-2 -4 4 4 7 2 12 -3 12 -6 0 -11 -4 -11 -10 0 -5 -7 -10 -15 -10 -8 0 -15 -5
-15 -11 0 -5 6 -7 13 -4 6 4 4 0 -5 -8 -20 -16 -25 -32 -6 -21 7 4 8 3 4 -4
-4 -6 -13 -9 -20 -6 -17 6 -40 -22 -33 -40 4 -11 1 -13 -10 -9 -13 5 -15 2
-10 -12 6 -15 5 -16 -8 -5 -13 11 -14 10 -9 -4 4 -11 -1 -19 -17 -25 -13 -5
-18 -10 -11 -10 7 -1 10 -6 7 -11 -4 -6 -10 -8 -15 -5 -5 3 -11 -4 -15 -15 -4
-11 -10 -18 -15 -15 -4 3 -14 -8 -22 -25 -7 -16 -17 -30 -21 -30 -5 0 -5 -4
-2 -10 3 -5 1 -10 -5 -10 -6 0 -8 -4 -5 -10 6 -9 -8 -14 -27 -11 -11 1 -10
-17 1 -21 4 -1 -1 -12 -12 -23 -11 -11 -16 -14 -12 -6 5 9 4 12 -3 7 -6 -4 -8
-14 -5 -23 4 -11 3 -14 -5 -9 -11 7 -17 -6 -13 -28 1 -5 -5 -6 -13 -3 -11 4
-13 1 -9 -10 4 -10 2 -14 -4 -10 -6 4 -13 0 -16 -8 -4 -10 -1 -12 10 -8 11 4
14 2 9 -5 -4 -7 -13 -12 -20 -12 -8 0 -20 -8 -27 -17 -10 -11 -10 -14 -1 -9 6
4 12 3 12 -1 0 -5 -10 -14 -21 -22 -18 -11 -19 -15 -8 -23 10 -7 8 -8 -10 -4
-18 4 -21 2 -12 -7 8 -8 6 -15 -11 -25 -13 -8 -15 -11 -5 -8 11 3 17 0 17 -10
0 -8 -5 -12 -10 -9 -6 3 -17 -1 -26 -9 -9 -9 -11 -16 -4 -16 7 0 6 -5 -2 -14
-7 -8 -16 -12 -20 -9 -4 2 -5 -4 -1 -13 4 -12 3 -15 -5 -10 -7 4 -12 2 -12 -4
0 -6 -5 -8 -12 -4 -7 4 -8 3 -4 -5 4 -6 11 -9 15 -7 4 3 8 -1 8 -9 0 -8 -4
-12 -9 -9 -4 3 -8 -2 -8 -10 0 -9 -7 -16 -15 -16 -15 0 -19 -11 -16 -39 2 -8
-2 -10 -11 -5 -9 5 -8 2 2 -11 8 -10 10 -16 3 -12 -6 4 -14 3 -18 -3 -4 -6
-11 -7 -17 -4 -7 4 -8 2 -4 -5 4 -6 12 -9 17 -6 5 4 9 3 9 0 0 -8 -26 -35 -31
-32 -3 1 2 -4 10 -10 13 -11 13 -13 0 -14 -8 -1 -18 -1 -23 0 -5 1 -4 -4 3
-12 9 -12 8 -15 -5 -13 -9 0 -19 -6 -21 -14 -4 -13 -3 -13 6 0 7 10 11 11 11
3 0 -7 -6 -18 -13 -25 -8 -7 -12 -22 -10 -33 4 -15 2 -17 -5 -6 -7 9 -12 10
-16 2 -4 -6 -4 -11 0 -11 4 0 -5 -13 -21 -30 -16 -16 -23 -30 -17 -30 7 0 12
4 12 9 0 5 6 11 14 14 11 4 11 1 2 -18 -6 -13 -14 -21 -18 -19 -5 3 -8 -2 -8
-11 0 -9 -5 -13 -11 -9 -8 5 -8 1 0 -14 9 -16 7 -23 -12 -36 -18 -14 -19 -16
-3 -11 16 5 17 3 6 -10 -7 -8 -17 -12 -24 -8 -6 3 -6 1 1 -7 10 -11 8 -19 -10
-39 -12 -13 -17 -21 -10 -18 7 5 10 1 8 -10 -2 -10 -4 -22 -4 -26 -1 -5 -5 -5
-11 -2 -5 3 -10 1 -10 -5 0 -6 -5 -8 -12 -4 -9 5 -9 2 1 -9 11 -14 11 -17 0
-17 -11 0 -11 -2 1 -10 13 -9 8 -14 -11 -12 -4 1 -5 -8 -2 -19 4 -12 -3 -32
-16 -49 -12 -18 -18 -36 -14 -46 5 -12 3 -15 -6 -9 -10 6 -11 3 -1 -15 11 -20
10 -22 -4 -17 -8 3 -18 2 -21 -4 -4 -5 -1 -8 6 -7 6 2 14 -3 16 -10 3 -7 1
-12 -4 -11 -27 5 -32 -7 -36 -88 -1 -15 -4 -20 -11 -13 -6 6 -15 10 -21 10 -5
0 -4 -4 3 -9 11 -7 11 -17 2 -52 -7 -24 -17 -54 -23 -67 -8 -16 -7 -26 1 -34
15 -15 15 -28 1 -28 -5 0 -7 5 -3 12 4 7 3 8 -5 4 -6 -4 -9 -11 -6 -16 3 -4
-1 -11 -7 -13 -10 -4 -10 -6 0 -6 7 -1 10 -6 7 -12 -7 -10 -14 -48 -17 -79 0
-8 -6 -21 -12 -29 -9 -12 -8 -13 4 -6 13 8 13 7 1 -8 -11 -14 -11 -17 0 -17
10 -1 8 -4 -3 -11 -10 -5 -18 -15 -18 -20 0 -6 4 -7 10 -4 6 3 7 -1 4 -9 -3
-9 -9 -14 -13 -12 -3 2 -6 -18 -7 -44 0 -32 4 -47 10 -42 6 3 6 -1 -1 -9 -15
-18 -20 -80 -8 -98 5 -9 4 -12 -2 -8 -6 4 -14 0 -17 -9 -3 -8 -2 -13 2 -10 4
3 8 -6 8 -19 0 -13 -2 -23 -5 -23 -20 2 -31 -3 -26 -12 3 -5 13 -7 23 -4 13 5
14 4 3 -4 -7 -5 -11 -14 -7 -20 3 -6 1 -14 -5 -18 -8 -5 -9 -3 -4 6 5 9 4 11
-4 6 -8 -5 -9 -12 -2 -19 14 -18 14 -29 -1 -38 -10 -7 -10 -9 0 -9 6 0 12 -5
12 -11 0 -5 -4 -8 -8 -5 -7 4 -8 -33 -2 -41 7 -9 5 -50 -3 -60 -6 -9 -5 -18 3
-28 10 -12 10 -15 0 -15 -9 0 -9 -4 1 -17 12 -15 12 -16 -5 -9 -19 7 -19 6 -2
-13 13 -14 14 -21 5 -27 -8 -5 -10 -3 -4 6 6 9 4 11 -5 5 -10 -6 -9 -11 5 -22
12 -8 14 -13 6 -13 -10 0 -11 -3 -2 -14 9 -11 9 -16 0 -22 -8 -5 -9 -3 -4 6 6
9 4 11 -4 6 -9 -6 -8 -13 6 -29 10 -11 13 -17 6 -14 -8 5 -11 0 -10 -13 1 -11
6 -20 11 -20 5 0 1 -7 -10 -16 -10 -8 -14 -13 -7 -10 6 4 14 2 18 -4 3 -5 -1
-10 -10 -10 -15 0 -15 -1 0 -16 9 -10 13 -20 8 -23 -4 -3 -9 -16 -10 -29 -2
-16 1 -21 10 -16 9 6 9 4 -1 -8 -10 -13 -10 -17 0 -21 10 -4 10 -6 -1 -6 -11
-1 -11 -4 -1 -16 10 -12 10 -15 0 -15 -9 0 -10 -3 -1 -13 8 -10 7 -17 -1 -25
-9 -9 -9 -12 1 -12 11 0 11 -3 0 -17 -12 -15 -12 -16 1 -8 12 7 13 6 5 -6 -6
-8 -10 -21 -9 -29 1 -8 2 -21 3 -28 0 -7 5 -11 9 -8 13 8 6 -42 -8 -61 -12
-15 -12 -16 0 -5 14 12 39 18 27 6 -3 -4 -2 -16 4 -27 8 -14 8 -18 0 -13 -6 4
-12 4 -12 -1 -6 -35 -5 -52 2 -47 4 2 6 11 2 19 -3 8 -1 15 3 15 14 0 15 -70
1 -70 -7 0 -4 -5 6 -11 14 -8 16 -14 6 -25 -9 -11 -9 -14 1 -14 9 0 10 -3 1
-13 -6 -8 -8 -17 -4 -21 13 -12 14 -48 1 -40 -7 4 -8 3 -4 -5 4 -6 11 -9 15
-6 5 2 13 -7 19 -20 9 -19 8 -23 -2 -19 -7 3 -13 -2 -13 -10 0 -8 4 -13 8 -10
4 2 10 0 14 -6 3 -5 1 -10 -6 -10 -8 0 -7 -5 2 -17 12 -14 12 -16 -1 -9 -8 4
-6 0 4 -8 15 -12 16 -16 5 -16 -12 0 -12 -2 1 -10 13 -9 13 -10 0 -10 -13 0
-13 -1 0 -10 11 -7 11 -10 2 -10 -7 0 -10 -5 -7 -10 4 -6 10 -8 15 -5 4 3 6
-5 3 -17 -4 -19 -3 -20 6 -8 6 8 11 10 11 5 0 -6 -6 -17 -12 -24 -11 -11 -10
-12 1 -6 9 5 12 3 9 -6 -3 -8 2 -19 10 -25 12 -9 12 -13 2 -19 -9 -6 -11 -4
-5 5 6 9 4 11 -5 5 -10 -6 -9 -11 4 -21 13 -9 14 -13 4 -17 -10 -4 -10 -6 1
-6 11 -1 11 -4 0 -18 -12 -14 -12 -16 0 -8 11 6 13 4 7 -10 -5 -14 -4 -15 7
-7 10 9 13 4 12 -21 0 -18 4 -35 9 -39 14 -9 15 -48 2 -48 -6 0 -5 -4 2 -9 17
-11 17 -21 0 -33 -8 -6 -5 -7 12 -2 22 6 23 5 12 -9 -10 -12 -10 -17 -1 -23 8
-4 9 -3 5 4 -4 7 -5 12 -2 12 3 0 10 -10 17 -21 8 -15 8 -19 0 -15 -15 10 -14
-7 2 -23 10 -11 9 -12 -3 -6 -12 7 -13 6 -3 -6 10 -12 10 -18 0 -29 -8 -9 -8
-11 0 -6 17 9 45 -23 38 -45 -4 -11 -2 -19 6 -19 8 0 8 -5 -2 -17 -10 -11 -10
-14 -1 -9 10 6 18 -7 10 -17 -2 -1 7 -13 19 -26 12 -13 19 -29 15 -35 -10 -17
-11 -37 -1 -30 5 3 9 0 9 -6 0 -6 5 -8 10 -5 6 3 10 -3 10 -14 0 -33 1 -35 18
-54 15 -17 15 -17 -3 -11 -13 5 -16 4 -11 -4 4 -7 13 -12 20 -12 22 0 37 -25
24 -38 -9 -9 -9 -12 1 -12 9 0 10 -4 3 -12 -7 -9 -4 -19 11 -33 l20 -20 -12
25 c-11 23 -11 23 3 7 8 -11 12 -26 9 -35 -5 -11 -3 -13 6 -7 10 6 11 3 2 -14
-8 -15 -9 -21 -1 -21 6 0 9 -4 6 -9 -3 -5 2 -8 11 -7 9 0 18 -6 20 -14 4 -13
3 -13 -6 0 -7 10 -11 11 -11 3 0 -7 9 -17 19 -23 13 -6 17 -17 14 -30 -3 -11
0 -20 6 -20 6 0 11 -7 11 -15 0 -8 5 -15 10 -15 6 0 10 -5 10 -11 0 -5 -4 -7
-10 -4 -5 3 -10 4 -10 0 0 -3 11 -10 24 -15 19 -7 23 -14 19 -31 -4 -15 -2
-20 5 -15 15 9 23 -7 10 -24 -8 -12 -8 -11 -3 5 5 15 3 17 -6 8 -17 -17 -2
-35 21 -23 19 10 22 -2 7 -27 -8 -12 4 -18 26 -14 4 1 3 -7 -3 -18 -9 -18 -7
-19 18 -16 15 2 21 2 15 -1 -7 -3 -13 -10 -13 -15 0 -6 6 -7 13 -3 9 6 9 5 0
-7 -15 -19 0 -39 32 -40 11 0 14 -3 7 -6 -10 -4 -9 -10 5 -26 13 -14 14 -18 3
-13 -8 4 -6 0 4 -8 11 -9 16 -16 10 -17 -5 0 1 -4 13 -9 16 -7 21 -14 16 -26
-4 -12 -3 -15 5 -10 8 5 12 -1 12 -18 0 -14 4 -28 10 -31 6 -4 7 1 4 12 -5 13
-2 12 10 -5 10 -12 14 -27 11 -32 -3 -6 1 -10 9 -10 9 0 16 -5 16 -11 0 -5 6
-7 13 -3 8 5 8 2 -2 -9 -12 -15 -11 -17 5 -17 16 0 17 -2 4 -10 -12 -8 -11
-10 8 -10 12 0 22 -5 22 -11 0 -5 -6 -7 -12 -3 -17 9 31 -37 62 -60 14 -11 17
-16 8 -13 -10 4 -18 2 -18 -3 0 -6 7 -10 15 -10 8 0 15 -4 15 -9 0 -5 9 -13
20 -16 16 -5 18 -10 10 -25 -9 -16 -7 -18 10 -15 15 3 20 -2 20 -16 0 -11 5
-17 10 -14 5 3 10 2 10 -4 0 -5 -6 -12 -12 -14 -8 -3 -5 -6 5 -6 21 -1 47 -24
47 -41 0 -6 4 -8 10 -5 5 3 10 -1 10 -10 0 -9 4 -14 9 -10 5 3 12 -4 16 -15 3
-11 14 -20 23 -21 12 0 13 -2 4 -6 -10 -4 -8 -9 7 -20 12 -8 27 -11 34 -7 8 5
8 2 -2 -9 -12 -15 -11 -17 4 -17 11 0 15 -5 12 -14 -4 -11 -1 -13 10 -9 11 4
14 2 9 -5 -4 -7 -1 -12 9 -12 9 0 13 -4 10 -10 -3 -5 1 -10 10 -10 9 0 19 -9
22 -20 3 -11 12 -20 19 -20 8 0 18 -10 23 -22 5 -13 12 -23 17 -23 5 0 8 -3 6
-7 -1 -5 5 -8 13 -8 8 0 15 -4 15 -10 0 -5 7 -10 15 -10 8 0 15 -5 15 -11 0
-5 -5 -7 -12 -3 -7 4 -8 3 -4 -5 4 -6 12 -9 17 -6 5 4 9 2 9 -4 0 -14 55 -42
66 -33 5 4 3 0 -4 -9 -14 -19 -4 -33 14 -18 8 7 14 6 20 -2 4 -8 3 -9 -4 -5
-8 5 -10 2 -6 -9 5 -12 9 -13 20 -4 8 6 14 10 15 8 0 -2 2 -12 4 -23 2 -10 9
-24 16 -30 9 -8 10 -8 5 2 -4 6 -2 12 3 12 6 0 11 -5 11 -11 0 -5 4 -7 10 -4
6 4 7 -1 3 -11 -4 -11 -2 -15 4 -11 6 4 13 0 17 -8 3 -8 13 -15 23 -15 15 0
16 -2 3 -10 -12 -8 -11 -10 8 -10 12 0 22 -6 22 -12 0 -9 4 -8 10 2 8 12 10
10 10 -10 0 -20 2 -22 11 -10 9 12 10 12 6 -5 -3 -15 2 -20 20 -21 14 -1 20 2
16 9 -3 6 -1 7 5 3 6 -4 8 -14 5 -23 -5 -12 -3 -14 7 -8 10 6 12 4 7 -9 -5
-13 -3 -15 11 -7 24 13 57 -10 39 -28 -9 -10 -8 -11 7 -5 15 6 17 4 11 -7 -8
-12 -6 -12 8 0 16 12 17 12 11 -5 -4 -10 -4 -16 1 -12 4 4 16 -1 26 -13 12
-14 18 -16 22 -7 4 10 6 10 6 1 1 -7 10 -13 21 -13 14 0 20 -7 20 -22 0 -19 2
-20 10 -8 7 11 10 11 10 2 0 -8 5 -10 12 -6 8 5 9 2 4 -11 -5 -15 -4 -16 9 -5
9 7 15 9 14 4 -4 -22 2 -32 19 -28 9 3 29 -7 45 -21 15 -15 27 -20 27 -13 0
10 3 9 9 -1 8 -13 12 -13 28 -1 15 12 16 12 6 0 -19 -21 -16 -30 11 -30 14 0
28 -5 32 -12 5 -7 3 -8 -6 -3 -9 6 -11 4 -5 -5 6 -10 11 -9 22 5 12 17 13 17
14 2 4 -46 4 -46 43 -31 14 5 17 4 12 -5 -5 -8 -3 -12 5 -10 27 3 40 -1 34
-11 -3 -5 -11 -10 -16 -10 -6 0 -7 5 -3 12 4 7 3 8 -5 4 -19 -12 -1 -27 25
-20 13 4 24 2 24 -4 0 -6 10 -8 23 -6 12 2 16 2 10 -2 -7 -3 -13 -10 -13 -15
0 -6 9 -5 22 2 18 10 20 9 15 -4 -4 -12 -2 -14 10 -10 12 5 14 3 8 -8 -7 -11
-5 -11 10 1 10 8 16 10 12 4 -4 -7 0 -15 9 -18 10 -4 13 -2 9 7 -4 6 3 1 15
-13 12 -14 18 -18 14 -10 -4 8 6 4 22 -10 15 -14 23 -18 16 -9 -9 13 -9 16 3
16 8 0 15 -7 15 -16 0 -14 2 -14 10 -1 7 11 10 12 10 2 0 -7 7 -20 15 -28 10
-10 15 -11 15 -3 0 8 5 8 17 -2 9 -8 14 -9 10 -3 -3 6 0 11 8 11 8 0 11 -5 8
-10 -4 -6 0 -8 10 -4 10 3 17 2 17 -4 0 -6 9 -8 23 -4 22 7 22 7 2 -10 -11 -9
-14 -14 -7 -10 6 3 12 0 12 -7 0 -9 3 -9 10 2 7 11 10 11 10 2 0 -10 5 -10 21
-1 12 6 19 7 15 1 -3 -5 1 -13 10 -16 10 -4 13 -2 8 6 -5 7 -3 8 5 3 7 -4 10
-17 7 -29 -5 -20 -5 -20 9 -2 8 11 15 14 15 7 0 -7 4 -9 10 -6 5 3 10 0 10 -7
0 -11 2 -10 9 0 6 11 10 10 15 -5 7 -17 8 -17 21 0 11 16 13 16 19 2 4 -11 2
-14 -6 -9 -7 4 -8 3 -4 -5 6 -9 11 -9 24 1 12 10 14 10 8 1 -6 -12 11 -18 37
-14 4 0 7 -5 7 -11 0 -9 4 -8 10 2 9 13 10 13 10 0 0 -13 1 -13 10 0 7 11 10
11 10 2 0 -7 8 -12 18 -11 26 3 52 -11 53 -30 0 -11 2 -12 6 -3 4 10 8 10 21
0 14 -11 15 -10 8 6 -7 20 -7 20 14 1 18 -16 24 -17 42 -6 15 10 18 10 12 0
-5 -9 -2 -10 11 -5 16 6 16 4 4 -11 -7 -10 -9 -15 -5 -11 5 4 15 3 23 -4 11
-9 12 -7 7 7 -5 13 -4 16 4 11 7 -4 12 -15 12 -24 0 -15 2 -15 10 -2 8 12 11
13 19 1 7 -11 9 -11 14 0 4 11 6 11 6 1 1 -10 6 -10 22 -1 15 8 19 8 15 0 -4
-6 -2 -11 3 -11 6 0 11 5 11 12 0 6 7 3 16 -8 8 -10 13 -14 10 -8 -3 7 5 10
22 9 21 -1 27 -6 26 -23 -1 -12 3 -19 7 -16 5 3 7 10 4 15 -11 16 7 10 22 -8
8 -10 12 -12 8 -5 -4 7 0 12 9 12 9 0 16 -6 16 -12 0 -10 3 -9 9 1 6 9 10 10
16 2 5 -9 10 -9 20 -1 9 8 15 8 20 0 3 -5 11 -10 16 -10 6 0 7 5 3 12 -4 7 6
2 22 -9 22 -16 34 -19 45 -11 11 8 11 9 -3 5 -9 -3 -22 2 -30 11 -11 13 -11
14 2 7 19 -12 42 -13 57 -2 6 4 14 3 18 -3 4 -6 1 -9 -6 -8 -6 2 -14 -3 -17
-11 -3 -8 0 -11 7 -7 18 11 81 15 75 4 -3 -5 0 -9 7 -7 25 3 40 -1 35 -9 -2
-4 4 -8 14 -8 10 0 16 4 14 8 -3 4 -1 8 5 8 5 0 12 -6 14 -12 4 -10 6 -10 6 0
1 7 6 10 13 6 7 -4 8 -3 4 4 -4 7 -2 12 5 12 7 0 2 9 -10 19 -16 14 -18 21 -9
24 9 4 10 6 1 6 -7 1 -10 7 -7 15 3 8 0 17 -5 21 -6 3 -8 12 -5 18 4 7 4 9 -1
5 -4 -4 -14 -3 -22 3 -10 9 -10 15 -2 25 9 11 7 14 -7 15 -18 0 -18 1 1 9 15
7 16 9 4 9 -9 1 -23 9 -30 18 -10 11 -10 14 -1 9 16 -10 15 6 -2 29 -10 14
-11 25 -4 39 7 14 7 17 -2 11 -8 -5 -11 0 -8 13 2 11 -8 32 -22 48 -14 15 -20
24 -14 21 6 -3 11 0 11 7 0 8 -7 12 -15 8 -10 -3 -13 -1 -8 6 4 7 2 12 -3 12
-6 0 -11 -6 -11 -12 0 -9 -3 -8 -9 2 -6 8 -7 18 -4 24 3 5 1 6 -6 2 -6 -4 -9
-11 -7 -15 3 -4 -1 -8 -8 -8 -8 0 -12 6 -10 12 3 6 -1 12 -9 12 -9 0 -13 -8
-9 -21 4 -21 4 -21 -12 -1 -9 11 -16 16 -15 10 3 -22 -2 -29 -11 -15 -7 11
-10 11 -10 2 0 -7 -4 -11 -9 -7 -5 3 -13 0 -17 -6 -4 -7 -3 -9 3 -6 6 4 14 0
17 -9 3 -8 2 -12 -3 -9 -5 3 -12 1 -16 -5 -3 -5 -1 -10 6 -10 7 0 4 -7 -7 -16
-10 -8 -14 -13 -7 -10 6 4 14 2 18 -4 3 -5 -1 -10 -9 -10 -9 0 -13 -6 -10 -14
3 -8 0 -17 -5 -21 -8 -4 -6 -15 6 -33 20 -30 23 -84 4 -90 -6 -2 -8 -8 -5 -14
3 -5 -3 -4 -14 3 -17 11 -19 16 -9 29 6 8 7 11 2 7 -5 -4 -15 3 -22 15 -7 13
-12 17 -13 10 0 -7 -5 -10 -10 -7 -8 5 -8 11 0 20 7 9 6 16 -7 26 -11 9 -14
10 -9 2 4 -7 2 -13 -3 -13 -6 0 -11 9 -11 21 0 13 -4 18 -12 13 -8 -5 -9 -2
-4 11 5 15 4 16 -8 6 -12 -10 -14 -8 -12 13 2 17 -4 31 -20 43 -12 9 -21 20
-18 25 3 4 -2 8 -12 8 -14 0 -14 3 -4 16 11 13 10 16 -8 21 -12 3 -22 12 -22
19 0 8 -6 14 -12 14 -9 0 -9 3 -3 8 6 4 10 12 10 17 -1 14 -24 52 -25 39 0 -5
6 -16 13 -24 10 -12 9 -12 -5 -1 -10 7 -18 24 -18 38 0 14 -4 21 -10 18 -6 -3
-10 -2 -10 4 0 5 6 12 13 14 9 4 9 8 -2 15 -7 5 -11 15 -7 21 5 7 1 8 -10 4
-11 -4 -15 -3 -10 5 3 6 -2 15 -11 21 -17 10 -17 10 2 11 19 1 19 2 3 14 -14
10 -15 15 -5 26 9 10 9 11 0 6 -13 -7 -17 5 -14 33 2 8 -2 10 -11 5 -9 -5 -8
-2 2 11 14 17 13 18 -2 12 -10 -3 -20 -1 -24 5 -4 7 -3 8 4 4 15 -9 16 28 1
56 -8 15 -8 19 0 14 6 -4 11 -2 11 3 0 6 -5 11 -11 11 -8 0 -8 4 0 14 9 11 9
16 0 22 -8 5 -9 3 -4 -6 5 -9 4 -11 -4 -6 -9 6 -8 14 4 33 12 17 13 23 4 17
-27 -17 -35 -12 -31 22 3 20 -2 41 -9 51 -12 15 -12 16 6 10 20 -7 20 -7 1 8
-11 8 -15 15 -10 15 6 0 11 7 11 15 0 8 -4 12 -8 10 -4 -3 -10 2 -13 11 -3 8
-2 12 3 9 5 -3 12 -1 16 5 3 5 0 10 -8 10 -8 0 -20 14 -26 30 -5 17 -7 30 -4
30 3 0 0 7 -7 15 -7 8 -16 12 -21 9 -5 -3 -9 1 -9 8 0 9 -3 9 -10 -2 -9 -13
-11 -13 -20 0 -8 13 -10 12 -10 -2 0 -10 -6 -18 -12 -18 -9 0 -8 -4 2 -10 12
-8 12 -10 1 -10 -11 0 -11 -3 0 -17 13 -15 12 -15 -9 -4 l-22 12 20 -36 c11
-20 16 -34 11 -31 -14 9 -20 -6 -11 -28 4 -11 0 -32 -8 -49 -11 -23 -12 -31
-2 -40 10 -9 11 -9 6 0 -8 14 3 43 16 43 6 0 5 -6 -2 -15 -10 -12 -10 -18 0
-30 10 -12 10 -15 -3 -15 -9 0 -19 -5 -23 -12 -4 -6 -3 -8 3 -5 6 4 14 -5 18
-21 13 -45 14 -52 4 -46 -13 8 -11 -10 3 -24 7 -7 8 -12 2 -12 -11 0 -10 -36
1 -62 4 -10 12 -15 19 -11 6 4 4 -2 -4 -12 -14 -17 -13 -18 2 -12 10 3 20 1
24 -5 4 -7 3 -8 -4 -4 -7 4 -12 2 -12 -4 0 -6 -6 -8 -12 -5 -7 4 -2 -3 11 -14
13 -12 18 -21 11 -21 -9 0 -9 -4 -2 -13 7 -8 7 -18 2 -27 -11 -17 -3 -32 13
-24 7 3 4 -1 -6 -9 -16 -13 -16 -15 -2 -21 9 -3 13 -10 10 -16 -3 -5 -1 -10 6
-10 8 0 8 -4 -1 -15 -20 -24 -47 -18 -75 17 -14 18 -25 36 -23 39 2 3 -3 13
-10 22 -8 9 -11 21 -7 26 3 6 0 8 -8 5 -8 -3 -18 0 -23 7 -4 8 -3 10 4 5 20
-12 13 20 -9 45 l-20 24 18 -30 c10 -16 12 -26 5 -21 -18 11 -44 65 -37 76 3
6 -2 10 -12 10 -14 0 -15 2 -5 9 10 6 8 10 -9 14 -20 5 -21 8 -8 23 12 15 12
17 0 9 -11 -6 -13 -4 -8 9 4 9 3 15 -1 12 -5 -3 -16 3 -24 13 -12 14 -13 22
-5 30 8 8 8 11 -1 11 -7 0 -12 8 -12 18 0 15 -2 15 -11 2 -9 -12 -10 -11 -6 8
3 15 0 22 -9 22 -17 0 -18 12 -2 29 7 7 9 12 3 11 -22 -5 -35 1 -35 15 0 8 -5
15 -12 15 -9 0 -9 3 -1 11 13 13 6 39 -9 39 -6 0 -4 -8 3 -17 13 -16 12 -17
-4 -4 -12 10 -14 17 -7 26 8 10 5 17 -10 28 -15 10 -18 17 -10 22 8 5 2 17
-20 36 -17 16 -26 29 -21 29 6 0 11 5 11 11 0 5 -6 7 -12 3 -8 -5 -7 0 2 11 9
11 10 16 3 11 -13 -7 -17 5 -13 34 1 11 -3 10 -21 -5 -13 -11 -19 -13 -14 -5
15 24 13 60 -2 60 -8 0 -11 5 -8 10 4 6 12 7 18 3 7 -4 6 0 -2 10 -15 18 -26
23 -16 7 3 -5 1 -10 -4 -10 -6 0 -11 12 -11 26 0 14 -4 23 -8 20 -5 -3 -9 1
-9 9 0 8 5 12 10 8 5 -3 1 7 -9 23 -18 29 -18 29 1 14 19 -14 19 -14 6 2 -7
10 -20 18 -28 18 -10 0 -11 4 -3 19 7 13 7 22 0 26 -5 3 -15 15 -21 27 -9 16
-8 19 2 13 8 -5 10 -4 5 3 -4 7 -1 12 6 12 9 0 9 3 -2 10 -20 13 -39 12 -20
-1 13 -9 13 -10 0 -6 -8 2 -15 8 -15 13 0 5 -4 16 -10 24 -8 13 -7 13 10 0 17
-14 18 -14 7 6 -6 12 -8 24 -5 28 3 3 -2 6 -12 6 -18 0 -18 0 0 14 18 13 18
14 -2 27 -13 8 -19 19 -15 28 5 14 3 14 -10 3 -14 -11 -16 -10 -11 7 3 12 9
18 14 15 5 -3 6 2 3 10 -3 9 -11 13 -16 10 -6 -4 -5 3 1 15 9 16 9 21 0 21 -8
0 -7 5 2 17 10 11 10 14 2 9 -8 -4 -13 -1 -13 9 0 9 -4 13 -10 10 -6 -4 -10 5
-10 20 0 14 -4 24 -8 21 -4 -2 -8 4 -8 14 0 15 3 17 16 7 11 -9 11 -7 -2 8 -9
11 -18 25 -20 30 -2 6 -9 9 -16 9 -10 -2 -10 1 -1 12 10 12 9 13 -6 8 -12 -5
-16 -4 -12 3 4 7 0 10 -10 8 -10 -1 -17 -8 -16 -14 2 -6 -4 -11 -13 -11 -9 0
-12 5 -8 12 4 7 3 8 -5 4 -9 -6 -9 -11 -1 -21 8 -10 8 -15 -1 -21 -8 -5 -10
-3 -5 7 4 8 1 6 -7 -3 -8 -10 -18 -14 -23 -10 -4 4 -2 -1 5 -11 12 -15 12 -17
-2 -11 -10 3 -20 -2 -27 -16 -9 -17 -9 -21 0 -15 7 4 5 -4 -4 -17 -9 -14 -13
-27 -10 -31 3 -3 -5 -3 -18 0 -13 3 -19 1 -13 -4 14 -11 12 -39 -3 -36 -13 3
-4 -28 11 -38 5 -3 1 -9 -8 -12 -11 -5 -14 -3 -9 6 4 6 -2 3 -13 -8 -13 -13
-16 -23 -10 -27 7 -4 6 -13 -4 -24 -12 -16 -12 -17 1 -9 13 7 13 6 2 -7 -10
-13 -10 -17 0 -21 10 -4 10 -6 1 -6 -7 -1 -13 -14 -13 -30 0 -17 -5 -33 -12
-37 -7 -5 -8 -3 -3 7 8 12 6 12 -8 0 -20 -16 -13 -33 10 -24 11 4 9 -1 -6 -16
-16 -16 -20 -26 -12 -35 6 -7 7 -16 3 -20 -7 -7 -8 -11 -11 -37 0 -5 -6 -7
-13 -3 -6 4 -8 3 -4 -4 3 -5 0 -12 -6 -15 -10 -3 -9 -8 2 -22 9 -11 10 -16 3
-11 -13 7 -18 -19 -13 -71 1 -19 -3 -22 -28 -20 -22 2 -28 6 -24 20 3 10 -4
25 -14 33 -19 15 -18 15 0 9 19 -6 19 -5 2 14 -22 24 -27 52 -12 70 9 12 8 13
-4 6 -13 -8 -13 -7 -1 8 10 13 10 17 1 17 -9 0 -9 4 1 17 10 12 11 15 1 9 -10
-6 -11 -1 -6 18 4 16 2 26 -5 26 -6 0 -11 5 -11 11 0 5 4 8 9 4 5 -3 13 0 17
6 4 8 3 9 -4 5 -7 -4 -12 -2 -12 4 0 6 -5 8 -13 4 -8 -5 -8 -2 2 9 7 9 10 17
5 17 -5 0 -2 5 6 11 13 9 13 10 0 6 -8 -2 -14 -11 -12 -18 2 -8 0 -11 -4 -7
-4 4 -7 26 -8 48 -1 29 3 40 14 40 12 1 12 3 -2 11 -9 5 -15 16 -12 24 4 8 11
12 18 8 6 -4 5 1 -3 10 -7 9 -11 24 -7 32 3 9 2 13 -4 10 -13 -8 -13 8 1 22 8
8 7 13 -2 18 -8 6 -10 4 -4 -5 5 -9 4 -11 -4 -6 -9 6 -9 11 1 23 14 17 13 19
-5 42 -9 12 -9 13 1 7 13 -8 17 15 5 28 -11 11 -12 36 -1 36 6 0 8 -7 5 -14
-4 -10 -1 -13 9 -9 11 4 12 9 5 16 -16 16 -14 60 2 51 8 -5 8 -2 -2 9 -15 19
-26 23 -15 5 5 -7 3 -8 -6 -3 -10 6 -7 13 11 27 13 10 20 18 14 17 -20 -3 -22
2 -15 40 4 22 3 47 -3 56 -6 12 -6 16 1 11 6 -3 13 -2 17 4 3 5 2 10 -2 10 -5
0 -9 14 -9 30 -1 22 3 30 15 30 14 0 14 -2 1 -10 -8 -5 -10 -10 -4 -10 20 0
23 12 7 36 -14 22 -14 24 3 24 17 0 16 1 -2 15 -10 8 -14 14 -9 13 6 -2 10 1
10 7 0 5 -4 9 -10 7 -5 -1 -2 4 7 11 14 11 15 16 5 27 -10 10 -9 11 3 5 13 -8
13 -7 1 8 -10 13 -10 17 -1 17 10 0 10 3 0 15 -10 12 -10 15 0 15 9 0 9 4 -1
17 -12 15 -12 16 4 10 14 -5 16 -3 9 11 -5 9 -7 23 -4 31 3 10 0 11 -9 5 -12
-6 -12 -5 -1 8 7 9 11 29 8 44 -5 27 -4 28 9 10 17 -23 20 -14 4 15 -5 11 -14
17 -19 14 -5 -3 -3 6 5 21 7 15 11 33 8 42 -4 8 -2 13 3 10 5 -4 10 5 11 18 5
52 6 59 15 65 5 3 2 9 -7 12 -9 4 -13 3 -10 -3 3 -6 1 -10 -5 -10 -7 0 -10 6
-7 14 3 7 0 19 -6 26 -10 10 -8 10 9 2 16 -9 21 -8 21 3 0 8 -3 12 -7 10 -4
-3 -16 5 -26 17 -11 12 -14 19 -9 16 6 -3 17 1 25 10 13 14 12 15 -3 9 -9 -3
-19 -2 -22 3 -4 6 -2 10 3 10 5 0 9 7 9 15 0 8 -4 12 -8 10 -3 -3 -9 5 -12 16
-4 14 -11 20 -21 16 -17 -7 -18 13 -1 26 6 5 -1 5 -14 2 -17 -5 -21 -4 -16 5
6 9 3 9 -14 1 -16 -9 -21 -9 -21 1 0 10 -2 10 -9 -1 -5 -7 -14 -10 -20 -7 -6
4 -11 4 -10 -1 4 -25 -3 -35 -21 -30 -11 3 -18 1 -14 -4 3 -5 -5 -9 -17 -9
-19 0 -20 -2 -8 -17 8 -10 9 -14 2 -10 -6 4 -14 3 -18 -3 -4 -6 -11 -8 -16 -5
-5 3 -6 -1 -3 -10 5 -11 0 -18 -15 -22 -11 -3 -21 -10 -21 -15 0 -5 5 -6 12
-2 7 5 8 3 4 -5 -5 -7 -15 -10 -23 -6 -14 5 -14 3 -2 -12 12 -15 12 -16 -3
-10 -12 4 -15 2 -12 -8 3 -7 -4 -19 -16 -25 -12 -6 -19 -18 -16 -25 2 -7 -3
-19 -12 -27 -16 -12 -16 -11 -2 6 14 18 14 18 -7 6 -20 -13 -20 -15 -5 -28 9
-7 11 -11 5 -7 -7 3 -13 1 -13 -5 0 -6 -4 -9 -9 -6 -4 3 -7 -5 -6 -19 2 -18
-1 -22 -13 -18 -9 4 -13 2 -9 -4 4 -6 0 -23 -8 -39 -7 -15 -12 -31 -9 -36 3
-4 -1 -5 -9 -2 -8 3 -18 0 -23 -7 -5 -8 -3 -10 7 -4 11 7 12 6 2 -7 -7 -8 -10
-18 -6 -21 3 -4 2 -7 -4 -7 -6 0 -18 -12 -28 -26 -9 -15 -12 -23 -6 -20 6 4
11 3 11 -2 0 -6 -8 -13 -17 -17 -17 -6 -17 -7 0 -20 16 -11 16 -13 2 -19 -9
-3 -13 -2 -10 4 3 6 1 10 -4 10 -6 0 -11 -8 -11 -17 0 -15 -2 -16 -10 -3 -5 8
-10 10 -10 5 0 -6 5 -16 12 -23 9 -9 9 -12 0 -12 -7 0 -12 -8 -10 -17 2 -10
-2 -17 -9 -16 -8 2 -10 -4 -6 -14 4 -10 2 -14 -5 -9 -6 3 -13 2 -17 -4 -3 -5
-1 -10 5 -10 12 0 -18 -51 -37 -63 -8 -5 -11 -13 -7 -18 3 -6 -1 -18 -9 -27
-8 -9 -17 -26 -19 -37 -2 -12 -13 -21 -27 -23 -14 -2 -21 0 -17 6 3 6 0 13 -6
15 -10 4 -10 8 1 15 11 8 11 10 0 15 -12 5 -12 6 0 6 11 1 11 4 0 18 -12 15
-12 16 1 8 13 -8 13 -7 1 8 -8 10 -9 17 -3 17 13 0 12 40 0 57 -5 7 -4 14 3
18 8 6 7 10 -2 16 -9 6 -10 9 -2 9 12 0 12 17 0 38 -10 14 4 16 21 2 9 -7 9
-7 2 2 -14 16 -13 31 2 22 7 -4 8 -3 4 4 -4 6 -12 10 -19 8 -7 -1 -9 -1 -5 1
5 3 3 14 -3 25 -8 15 -8 19 0 14 6 -4 11 0 11 9 0 9 4 14 8 11 5 -3 9 2 9 10
0 8 -6 13 -13 10 -8 -3 -11 0 -7 9 3 8 8 13 12 11 3 -2 12 7 18 21 12 24 12
25 -6 9 -14 -13 -21 -14 -27 -5 -4 7 -3 10 3 6 13 -8 23 14 23 49 0 13 6 24
13 24 8 0 7 4 -3 10 -11 7 -11 10 -2 10 8 0 10 5 6 12 -10 16 -11 69 -2 75 13
7 9 25 -4 18 -7 -4 -5 0 5 8 16 14 16 16 2 31 -9 9 -13 16 -8 16 5 0 15 -6 22
-12 10 -11 12 -10 9 2 -2 8 -10 20 -18 27 -13 10 -13 11 0 10 8 -2 22 -6 30
-11 8 -4 4 2 -9 13 -17 16 -19 21 -8 21 9 0 19 5 23 12 4 7 3 8 -4 4 -7 -4
-12 -1 -12 9 0 10 5 13 13 9 8 -5 8 -2 -2 9 -7 10 -9 17 -3 17 11 0 11 18 -1
37 -4 6 -2 15 4 19 8 5 9 3 4 -6 -5 -8 -4 -11 2 -7 5 3 8 24 7 46 -1 26 2 38
9 34 7 -4 8 0 4 11 -5 13 -3 17 7 13 10 -4 13 -1 9 8 -3 8 -10 12 -17 8 -6 -3
-3 3 7 14 14 16 15 22 5 26 -8 3 -5 6 7 6 16 1 17 3 6 10 -19 12 -24 44 -6 37
9 -3 12 4 11 24 -1 16 1 27 5 24 4 -2 10 4 14 14 13 29 14 42 2 35 -7 -4 -6 1
2 10 11 14 11 17 0 17 -12 0 -12 2 0 9 8 5 12 18 8 30 -6 23 8 38 19 20 5 -8
3 -9 -7 -4 -8 5 -10 4 -6 0 4 -5 14 -10 23 -11 13 -2 13 0 2 13 -15 19 -15 23
4 34 10 7 8 9 -6 9 -16 0 -16 2 5 20 21 17 21 19 4 14 -18 -6 -18 -5 2 15 13
12 23 30 23 41 0 10 5 22 10 25 8 5 7 12 -2 23 -9 10 -9 13 -1 9 7 -5 12 -1
12 10 2 49 4 53 20 40 10 -8 13 -8 8 0 -4 6 -1 14 5 16 10 4 9 6 -1 6 -11 1
-10 6 5 23 10 12 13 18 7 14 -7 -4 -13 -2 -13 3 0 11 15 15 35 11 6 -1 7 2 3
6 -4 4 -2 14 4 23 8 9 3 8 -12 -4 l-25 -20 15 20 c8 11 17 22 20 25 3 3 11 16
19 30 l14 25 -24 -20 c-16 -14 -20 -15 -10 -3 7 9 10 21 7 27 -4 5 3 7 16 3
14 -3 19 -1 14 6 -3 6 -1 14 5 18 7 4 8 9 1 13 -7 4 -3 16 9 31 l20 25 -11
-25 c-10 -24 -10 -24 4 -6 12 15 13 23 4 33 -6 8 -7 13 -2 12 21 -4 28 2 14
11 -13 8 -12 10 3 10 9 0 17 5 17 11 0 5 -5 7 -12 3 -7 -4 -8 -3 -4 4 4 7 17
12 29 12 12 0 18 4 12 8 -18 13 -17 35 1 28 15 -6 15 -4 3 11 -9 11 -10 14 -1
9 7 -4 12 -2 12 5 0 6 8 18 17 26 10 8 13 12 6 9 -6 -3 -10 0 -9 8 3 22 27 46
45 46 13 0 13 2 2 9 -11 7 -10 11 5 20 11 6 15 11 10 11 -6 0 0 9 12 20 12 12
22 30 22 42 0 12 3 18 7 15 9 -10 35 31 28 43 -4 6 -3 10 2 9 4 -1 17 -1 27 0
20 1 20 1 0 17 -10 8 -13 13 -6 9 6 -3 12 -1 12 5 0 6 4 9 9 6 4 -3 7 5 6 18
-2 19 1 23 19 20 11 -2 16 -2 9 2 -15 7 15 44 37 44 13 0 13 1 0 10 -11 7 -11
10 -2 10 8 0 10 5 6 12 -5 8 -2 9 10 5 14 -6 15 -4 5 16 -11 20 -11 21 4 9 14
-12 17 -10 23 13 4 15 21 36 38 47 17 11 23 18 14 15 -10 -4 -20 -2 -23 4 -4
5 -3 9 2 8 4 -1 11 0 16 1 4 1 13 3 20 4 6 1 11 9 9 19 -2 11 2 15 13 11 9 -4
15 -1 15 7 0 8 10 25 21 39 l20 25 -11 -25 c-9 -22 -9 -22 2 -6 7 11 24 31 38
45 13 14 24 29 22 34 -1 4 3 7 9 7 5 0 7 6 3 13 -6 9 -4 9 8 -1 13 -11 16 -10
14 5 0 11 5 17 13 15 12 -3 12 -1 0 14 -13 16 -12 16 8 6 20 -11 21 -10 17 12
-2 15 1 26 10 29 11 4 13 1 9 -10 -5 -12 -2 -12 15 3 23 19 29 30 12 19 -5 -3
-10 -1 -10 5 0 6 -5 8 -12 4 -8 -5 -7 0 2 11 14 17 13 17 -9 10 -19 -6 -23 -4
-18 9 3 8 1 18 -5 22 -7 5 -8 2 -3 -6 6 -10 4 -12 -10 -6 -15 5 -16 4 -5 -9
11 -13 10 -14 -3 -9 -9 3 -18 13 -20 22 -4 14 -5 14 -6 -2 -1 -19 -2 -19 -21
-1 -16 14 -19 15 -15 4 5 -13 0 -15 -25 -11 -16 2 -30 9 -30 15 0 6 -6 2 -14
-8 -8 -11 -12 -23 -10 -27 2 -4 0 -10 -6 -13 -6 -4 -9 -3 -8 2 2 4 -1 8 -7 8
-5 0 -9 -4 -7 -8 1 -5 -2 -6 -8 -2 -6 3 -8 11 -5 16 4 5 1 9 -4 9 -6 0 -11 -5
-11 -12 0 -6 -3 -8 -7 -5 -3 4 -13 1 -21 -6 -13 -10 -15 -9 -9 5 4 12 2 15 -8
11 -8 -3 -12 -10 -9 -15 4 -6 -4 -5 -16 2 -15 8 -20 8 -16 1 4 -6 2 -11 -3
-11 -6 0 -11 6 -11 13 -1 7 -6 6 -14 -5 -12 -16 -14 -16 -31 0 -18 16 -18 16
-4 -2 13 -18 12 -19 -4 -13 -11 4 -20 1 -23 -8 -8 -21 -25 -19 -18 3 3 9 -1 6
-9 -7 -11 -18 -16 -21 -21 -10 -4 11 -7 11 -12 2 -4 -9 -11 -10 -25 -3 -14 8
-17 7 -13 -3 4 -11 -1 -13 -20 -10 -16 3 -26 1 -26 -6 0 -7 5 -9 12 -5 7 4 8
3 4 -5 -4 -6 -11 -9 -16 -6 -4 3 -10 2 -13 -2 -2 -5 -2 -2 0 6 2 10 0 11 -9 4
-7 -6 -21 -9 -31 -8 -9 2 -15 -1 -11 -6 8 -13 -10 -11 -25 4 -10 10 -11 9 -5
-6 5 -13 2 -16 -10 -11 -10 4 -18 0 -22 -10 -4 -11 -11 -13 -23 -7 -10 6 -23
5 -34 0 -9 -6 -22 -7 -27 -4 -6 4 -7 -1 -3 -12 3 -10 3 -15 -1 -11 -5 4 -18 3
-31 -2 -16 -6 -27 -5 -35 4 -17 21 -8 40 25 51 20 7 30 17 30 30 0 11 5 18 10
15 6 -3 9 -9 7 -15 -1 -5 6 -1 16 11 10 11 26 20 36 18 11 -2 16 2 12 11 -6
15 20 29 49 26 16 -3 17 -1 6 13 -12 14 -12 16 3 10 9 -3 16 -2 16 3 0 5 7 10
15 10 8 0 15 -5 15 -11 0 -6 4 -5 9 3 5 8 7 20 4 28 -4 9 0 11 13 6 12 -4 15
-3 9 6 -6 10 -3 11 14 2 17 -10 20 -9 14 4 -4 11 1 18 16 22 12 3 18 10 14 17
-4 8 -2 7 7 -1 16 -15 40 -6 40 16 0 14 2 14 10 1 8 -12 10 -10 10 10 0 14 4
21 8 15 10 -14 48 -12 45 3 -2 7 5 12 15 12 13 0 14 2 4 9 -10 6 -7 10 12 13
14 3 27 0 30 -6 2 -6 5 -4 5 5 1 22 48 53 57 38 5 -8 9 -8 14 0 4 7 16 13 28
14 11 0 18 5 16 9 -3 4 0 8 6 8 6 0 9 4 6 9 -3 4 5 7 19 6 16 -2 22 1 18 11
-3 9 2 12 16 9 12 -2 21 1 21 8 0 7 9 13 20 13 11 0 20 -4 20 -9 0 -4 5 -5 10
-2 6 4 8 10 5 15 -3 4 3 14 12 21 9 8 14 9 10 3 -4 -7 -1 -14 7 -17 8 -3 13 1
12 10 0 9 7 17 17 18 11 2 15 -1 10 -8 -5 -8 -2 -8 9 0 8 7 19 9 23 5 5 -4 6
-2 2 3 -3 6 2 19 10 30 12 16 14 16 10 3 -3 -10 -2 -20 4 -23 5 -4 9 -3 8 2
-4 20 2 34 12 28 5 -4 20 -8 33 -9 19 -2 22 1 20 21 -1 13 2 21 7 17 5 -3 7
-11 3 -17 -3 -7 2 -3 10 7 17 21 60 31 49 12 -4 -6 0 -5 8 1 12 10 18 10 29 0
10 -9 11 -9 6 1 -4 6 -2 12 3 12 6 0 11 5 11 11 0 8 -4 8 -14 0 -11 -9 -16 -9
-22 0 -4 7 -3 9 4 5 6 -3 13 -2 16 3 4 5 18 8 32 5 19 -3 24 -1 18 8 -6 10 -3
9 9 -1 14 -11 17 -11 17 0 0 11 2 11 10 -1 6 -10 10 -11 10 -2 0 6 6 12 14 12
8 0 18 5 22 12 5 7 3 8 -6 3 -9 -5 -11 -4 -6 3 5 9 13 9 26 2 13 -7 21 -7 25
0 4 6 12 10 18 9 21 -2 57 13 51 22 -3 5 -2 9 3 10 4 0 16 2 26 4 11 2 15 -1
10 -8 -3 -7 4 -3 17 8 14 12 20 14 15 5 -8 -13 -7 -13 8 -1 12 9 17 10 17 2 0
-8 4 -8 14 1 8 7 12 16 10 20 -6 9 40 3 57 -7 11 -7 11 -5 -1 10 -8 10 -10 16
-5 13 6 -4 17 -3 25 2 9 5 19 5 27 -2 9 -7 13 -7 13 1 0 6 5 11 11 11 5 0 7
-6 3 -12 -5 -9 -2 -9 9 1 14 11 20 11 32 1 13 -11 14 -10 9 4 -3 9 -1 23 6 31
9 11 16 12 31 2 16 -10 21 -9 29 3 9 13 10 13 10 0 0 -13 1 -13 10 0 8 12 10
12 10 1 0 -11 3 -11 17 0 9 8 14 9 11 4 -4 -7 7 -10 27 -10 23 0 30 3 24 11
-9 11 -2 24 13 24 5 0 7 -4 4 -9 -3 -5 1 -12 10 -15 8 -3 13 -2 11 2 -3 4 4
16 15 27 12 12 17 14 13 5 -4 -11 2 -15 19 -15 16 0 21 4 15 11 -10 12 19 13
39 0 7 -4 12 -2 12 6 0 9 3 9 10 -2 9 -13 10 -13 10 0 0 12 2 12 9 1 6 -10 10
-10 16 -1 6 9 9 9 15 0 5 -8 12 -7 25 6 26 27 74 27 97 1 11 -12 16 -15 12 -7
-15 28 -14 47 2 26 10 -15 14 -16 14 -5 0 8 9 15 20 15 14 0 19 -5 15 -16 -3
-10 -1 -9 9 3 8 10 23 25 33 33 17 13 17 14 -1 7 -16 -5 -18 -3 -13 12 7 16 5
16 -10 4 -11 -9 -14 -10 -9 -1 5 8 1 12 -11 12 -15 0 -16 2 -3 10 11 7 11 10
2 10 -8 0 -10 5 -6 13 5 9 4 9 -6 0 -11 -10 -16 -8 -24 9 -6 11 -15 20 -20 19
-5 -2 -13 3 -17 11 -7 10 -9 10 -9 -2 -1 -12 -3 -12 -11 2 -5 10 -16 15 -24
12 -11 -4 -15 1 -16 17 0 23 -1 23 -9 4 -5 -12 -9 -14 -9 -6 -1 8 -4 11 -8 8
-3 -4 -16 1 -27 10 -20 17 -20 17 -6 -1 14 -18 14 -19 -7 -8 -28 15 -36 15
-27 0 5 -9 2 -9 -9 1 -9 7 -17 19 -17 25 0 6 5 4 10 -4 5 -8 10 -10 10 -4 0
16 -10 23 -26 17 -8 -3 -11 -10 -7 -17 4 -6 -1 -5 -10 3 -18 14 -23 26 -8 16
5 -3 12 -1 16 4 6 11 -27 7 -47 -5 -7 -4 -8 -3 -4 4 9 15 -6 16 -21 1 -8 -8
-13 -7 -18 2 -6 8 -4 10 5 4 8 -5 11 -4 7 3 -4 5 -17 8 -29 4 -12 -3 -19 -1
-15 4 6 10 -4 12 -68 15 -19 1 -35 6 -35 10 0 4 -8 6 -17 5 -10 -2 -20 0 -23
5 -3 4 -33 12 -67 18 -68 11 -103 28 -103 51 0 12 2 12 9 1 6 -10 10 -10 16
-1 6 9 10 9 16 -1 7 -12 9 -12 9 0 0 11 3 11 17 0 14 -12 16 -12 8 0 -6 10 -4
13 6 9 16 -6 41 16 31 28 -4 4 -1 4 6 0 10 -6 10 -11 1 -22 -6 -8 -9 -17 -5
-21 3 -3 6 -1 6 5 0 7 7 12 16 12 11 0 14 5 10 16 -6 15 -4 15 11 3 15 -12 16
-12 10 3 -4 12 -2 15 8 11 8 -3 13 -9 10 -13 -3 -5 -1 -12 5 -15 6 -4 10 -3 9
2 -3 20 2 34 11 28 5 -3 6 -13 3 -22 -4 -11 -3 -14 5 -9 7 4 12 14 12 22 0 8
5 12 10 9 6 -4 7 -12 4 -18 -5 -9 -4 -9 6 0 7 6 19 9 28 6 8 -4 13 -2 9 3 -6
11 42 12 60 1 6 -4 14 -1 16 5 4 10 6 10 6 0 1 -9 6 -10 20 -3 10 6 21 8 23 5
11 -10 48 -12 54 -2 4 6 10 5 15 -3 7 -12 9 -12 9 0 0 11 3 11 17 0 20 -17 16
-17 36 0 14 11 17 11 17 0 0 -9 3 -10 8 -4 10 14 32 17 32 5 0 -7 6 -7 18 -1
13 7 23 6 30 -1 9 -9 12 -9 12 1 0 10 3 11 14 2 11 -9 15 -9 19 1 4 11 6 10 6
0 1 -8 6 -10 14 -5 23 14 39 12 32 -5 -5 -13 -1 -12 16 4 12 10 19 14 16 7 -4
-6 -3 -14 3 -18 5 -3 10 -1 10 5 0 6 5 8 11 4 6 -3 15 0 20 7 7 11 9 10 9 -3
0 -10 5 -18 11 -18 5 0 7 5 3 11 -5 8 -1 8 13 0 11 -6 24 -7 28 -3 5 4 5 -1 2
-10 -8 -22 11 -35 19 -14 3 9 10 13 15 10 5 -3 7 -11 3 -17 -3 -7 2 -3 10 7
13 16 16 17 16 4 0 -16 22 -19 36 -5 4 3 21 -3 38 -15 l31 -22 -20 24 c-15 19
-16 21 -3 11 10 -7 26 -11 36 -9 11 3 19 0 19 -8 0 -7 -3 -11 -7 -9 -4 2 -7
-2 -7 -9 0 -11 4 -12 19 -3 15 10 21 9 28 -3 8 -12 10 -12 10 -1 0 11 3 11 17
0 9 -8 14 -9 10 -3 -3 6 0 11 8 11 8 0 12 -4 10 -8 -3 -4 2 -10 11 -13 8 -3
12 -2 9 3 -3 5 0 13 6 17 7 4 9 3 6 -2 -3 -6 -2 -16 4 -24 7 -13 9 -13 9 0 1
9 6 6 16 -10 8 -14 13 -17 10 -8 -3 12 -1 15 10 11 7 -3 14 -10 14 -17 0 -6 5
-4 10 4 8 12 10 12 10 1 0 -10 3 -11 14 -2 10 9 16 9 21 1 4 -6 14 -9 22 -6 9
4 17 -1 20 -14 4 -15 11 -19 25 -14 16 5 19 3 12 -7 -6 -10 -3 -10 11 1 15 12
17 12 10 1 -6 -11 -3 -13 13 -9 13 4 25 1 30 -6 13 -22 50 -38 55 -23 4 9 6 9
6 0 1 -7 6 -13 12 -13 5 0 7 6 3 13 -5 8 -2 8 9 -2 9 -7 17 -19 17 -25 0 -6
-5 -4 -11 4 -9 13 -10 13 -6 0 2 -8 12 -14 22 -12 12 2 15 -1 10 -10 -6 -10
-5 -10 5 -1 11 10 16 9 27 -5 14 -16 14 -16 9 2 -6 16 -4 17 9 6 8 -7 12 -17
8 -23 -4 -6 4 -8 20 -5 19 4 24 1 20 -10 -5 -12 -2 -12 16 -2 21 11 22 10 10
-12 -11 -21 -11 -22 4 -9 13 10 17 10 17 1 0 -7 7 -10 15 -7 8 4 17 2 20 -4 4
-5 11 -6 17 -3 7 4 8 2 4 -4 -7 -11 6 -17 27 -13 5 1 6 -3 3 -8 -9 -13 19 -32
38 -25 9 3 16 1 16 -6 0 -7 9 -9 23 -6 12 3 16 3 9 0 -10 -5 -10 -9 -1 -20 13
-16 33 -19 24 -4 -10 16 1 11 16 -7 12 -14 12 -16 0 -8 -10 6 -12 4 -7 -4 5
-7 15 -10 23 -6 13 4 14 3 4 -9 -11 -13 -9 -15 8 -11 14 3 21 -1 22 -13 0 -11
5 -7 13 11 7 15 15 25 19 22 4 -3 3 1 -3 7 -5 7 -10 20 -10 31 0 10 -4 15 -10
12 -5 -3 -10 -2 -10 4 0 5 6 12 13 14 6 3 1 6 -13 7 -14 1 -19 4 -12 7 6 2 12
11 12 19 0 8 -6 14 -12 14 -8 0 -9 3 -3 8 14 10 17 32 4 32 -8 0 -8 4 0 14 10
12 10 20 0 38 -7 13 -12 29 -11 36 2 6 -4 12 -11 12 -8 0 -18 7 -21 16 -6 15
-4 15 11 3 16 -13 16 -12 -1 15 -11 18 -13 25 -5 20 10 -6 10 -3 -1 11 -8 10
-13 27 -12 39 3 17 2 18 -11 7 -13 -10 -15 -9 -10 9 4 13 0 26 -8 31 -12 7
-12 9 0 9 10 0 11 3 2 14 -9 11 -9 15 1 19 10 4 10 6 1 6 -7 1 -13 10 -13 22
0 12 -4 17 -11 13 -7 -4 -6 2 2 17 12 23 11 23 -6 9 -11 -9 -16 -10 -11 -2 4
7 2 12 -6 12 -9 0 -9 3 2 10 11 7 12 12 4 18 -7 4 -11 19 -9 33 2 22 -1 26
-21 23 -13 -1 -22 2 -18 7 3 5 10 7 15 4 5 -3 6 1 3 9 -3 9 -11 16 -18 16 -6
0 -4 5 4 10 11 7 12 12 3 21 -6 6 -10 17 -9 23 2 6 1 8 -1 4 -3 -5 -9 -8 -14
-8 -6 0 -8 4 -5 9 3 5 -1 14 -9 21 -8 7 -15 18 -15 24 0 6 5 4 10 -4 8 -12 10
-9 7 10 -5 36 -17 60 -30 60 -5 0 -2 -10 9 -22 17 -21 16 -21 -9 1 -27 24 -36
38 -17 26 6 -3 10 1 10 10 0 9 -4 13 -10 10 -5 -3 -10 -1 -10 4 0 6 6 11 12
11 7 0 2 7 -10 16 -14 10 -21 22 -18 31 5 11 2 13 -10 9 -14 -5 -15 -4 -4 9 7
8 8 15 2 15 -5 0 -13 7 -16 16 -5 14 -4 15 9 4 13 -11 14 -10 9 4 -3 9 -12 16
-20 16 -8 0 -15 9 -15 20 -1 19 -4 31 -9 48 -1 4 -2 10 -1 14 0 4 -6 5 -14 2
-9 -4 -15 0 -15 9 0 8 -6 18 -12 20 -10 4 -10 6 0 6 6 1 12 6 12 12 0 5 -4 7
-10 4 -9 -6 -15 8 -11 29 1 5 -5 6 -14 3 -8 -4 -15 -2 -15 3 0 6 5 10 11 10 5
0 7 5 4 10 -4 6 -11 8 -16 5 -12 -8 -12 18 1 33 6 6 7 10 4 7 -4 -3 -14 1 -23
8 -14 11 -14 10 -2 -5 7 -10 9 -18 3 -18 -15 0 -22 26 -10 38 7 7 3 14 -13 23
-13 7 -28 12 -32 11 -4 -1 -3 7 3 19 7 11 9 23 6 27 -3 3 -6 0 -6 -6 0 -7 -5
-12 -10 -12 -7 0 -8 6 -1 17 7 13 4 22 -11 35 -11 10 -24 15 -28 13 -5 -3 -7
8 -6 25 2 25 0 27 -13 17 -12 -9 -13 -9 -7 1 4 7 2 12 -4 12 -6 0 -8 5 -5 10
3 6 0 10 -7 10 -9 0 -9 3 2 10 11 7 11 10 2 10 -7 0 -10 4 -7 10 3 5 0 7 -8 4
-8 -3 -20 3 -28 12 -9 12 -10 15 -1 10 7 -4 12 -1 12 8 0 9 -8 16 -17 16 -15
0 -16 2 -3 10 13 8 12 10 -2 10 -10 0 -18 5 -18 11 0 5 -6 7 -12 3 -8 -5 -7 0
2 11 9 11 10 16 3 11 -7 -4 -13 -3 -13 3 0 5 6 12 13 15 6 3 3 4 -8 3 -11 -1
-19 3 -18 10 2 7 -4 10 -13 6 -8 -3 -14 -2 -13 3 4 23 -2 45 -11 39 -6 -3 -7
1 -4 9 7 19 -12 22 -20 4 -4 -9 -5 -8 -5 2 2 32 -1 53 -8 47 -7 -8 -53 39 -53
54 0 6 -5 7 -11 3 -8 -5 -9 -2 -1 12 9 16 6 22 -21 37 -18 10 -23 16 -13 12
20 -6 20 -6 1 17 -11 13 -22 25 -24 28 -2 3 -1 -4 3 -15 5 -13 4 -17 -3 -10
-5 6 -11 17 -13 25 -5 22 -39 51 -52 43 -6 -4 -4 2 4 12 8 10 10 16 4 12 -12
-7 -54 36 -54 56 0 17 -42 57 -59 57 -8 0 -11 8 -8 20 3 11 2 18 -3 15 -4 -3
-14 3 -21 12 -12 14 -12 16 0 8 10 -5 12 -4 7 3 -4 7 -14 12 -22 12 -12 0 -12
4 -4 20 8 16 8 20 -4 20 -9 0 -20 9 -26 20 -13 24 2 27 20 5 9 -11 16 -13 24
-5 14 14 29 13 20 -2 -6 -10 -4 -10 8 0 14 11 17 10 24 -10 4 -13 7 -26 6 -30
-3 -13 16 -9 21 5 4 10 6 10 6 0 1 -7 9 -13 19 -13 14 0 15 -2 2 -10 -12 -8
-10 -10 8 -10 15 0 21 -4 16 -12 -5 -8 -2 -9 10 -5 14 5 17 3 12 -8 -5 -14 10
-20 37 -16 12 2 8 -17 -5 -23 -7 -3 -1 -3 15 0 17 4 27 2 27 -6 0 -6 -4 -8
-10 -5 -6 3 -7 -1 -4 -10 5 -13 9 -13 22 -3 12 10 14 10 8 1 -4 -8 -2 -13 8
-13 8 0 18 -5 22 -12 4 -7 3 -8 -4 -4 -7 4 -12 2 -12 -5 0 -6 8 -9 20 -6 11 3
18 1 14 -4 -3 -5 3 -9 13 -9 11 0 14 -3 7 -8 -9 -5 -8 -10 1 -19 11 -10 15
-10 18 0 3 7 6 4 6 -6 1 -12 5 -16 14 -11 8 6 8 3 -1 -9 -12 -14 -11 -16 7
-12 14 2 21 -1 21 -11 0 -8 4 -13 9 -10 5 3 11 -3 14 -14 3 -11 13 -20 22 -20
11 0 15 -5 12 -15 -4 -8 -1 -17 5 -21 7 -4 8 -3 4 4 -4 7 -2 12 3 12 6 0 11
-7 11 -15 0 -8 5 -15 11 -15 5 0 7 -4 4 -10 -3 -5 0 -7 8 -4 8 3 18 0 23 -7 5
-8 3 -10 -7 -4 -8 5 -5 -1 5 -13 21 -24 32 -29 20 -10 -4 7 -3 8 4 4 7 -4 12
-14 12 -22 0 -8 4 -13 8 -10 5 3 15 -6 22 -19 7 -13 18 -22 23 -18 6 3 7 1 3
-5 -4 -7 -2 -20 4 -29 10 -16 11 -16 5 2 -6 20 -6 20 13 0 10 -11 15 -22 10
-24 -10 -3 32 -37 42 -34 3 1 6 -7 6 -18 0 -10 -5 -19 -10 -19 -5 0 -6 -3 -3
-6 4 -4 14 -1 24 7 11 9 14 10 9 2 -4 -8 -2 -13 6 -13 9 0 9 -3 -2 -10 -13 -8
-12 -10 3 -10 10 0 15 -4 12 -10 -3 -5 -1 -10 5 -10 6 0 8 -5 4 -12 -4 -6 -3
-8 2 -5 6 3 16 2 24 -4 13 -7 13 -9 0 -9 -9 -1 -6 -5 8 -10 12 -5 22 -17 22
-25 0 -10 5 -13 13 -9 8 5 8 2 -2 -9 -9 -12 -10 -17 -2 -17 7 0 9 -5 5 -12 -6
-10 -5 -10 8 -1 18 16 32 5 17 -14 -9 -10 -8 -13 5 -13 10 0 14 -5 11 -10 -3
-6 1 -13 9 -16 9 -3 16 -10 16 -16 0 -5 -5 -6 -12 -2 -7 4 -8 3 -4 -4 4 -6 14
-8 24 -5 15 6 15 5 3 -10 -12 -15 -11 -17 3 -17 11 0 14 -5 10 -12 -5 -8 -2
-9 12 -4 10 4 15 4 11 0 -4 -4 -1 -14 6 -23 11 -14 10 -15 -8 -1 -19 14 -20
14 -2 -6 9 -11 17 -25 17 -31 0 -6 7 -16 15 -23 8 -7 12 -16 9 -21 -3 -5 2 -6
11 -3 11 5 14 2 9 -10 -4 -10 0 -18 10 -22 9 -3 13 -10 10 -15 -3 -5 0 -9 5
-9 6 0 11 -9 11 -21 0 -14 5 -19 14 -16 10 4 14 0 11 -14 -2 -10 0 -19 6 -19
5 0 9 -12 9 -26 0 -24 2 -25 17 -13 11 10 14 10 9 2 -4 -8 -2 -13 6 -14 7 0 4
-4 -7 -9 -18 -8 -18 -9 -2 -9 10 -1 16 -5 12 -10 -3 -5 0 -15 7 -23 26 -27 43
-52 31 -44 -18 10 -16 -2 2 -21 8 -8 12 -19 9 -25 -4 -6 2 -8 17 -3 13 3 20 3
14 -2 -5 -4 -10 -20 -11 -35 0 -21 3 -25 12 -17 10 8 12 4 8 -18 -3 -17 -1
-23 4 -15 6 9 12 6 20 -13 7 -15 8 -24 2 -20 -5 3 -10 3 -10 0 0 -10 28 -35
39 -35 16 0 23 -18 10 -26 -7 -4 -9 -3 -6 3 3 5 -1 10 -9 10 -10 0 -8 -7 8
-25 13 -14 18 -22 12 -19 -6 3 -11 0 -11 -8 0 -8 4 -12 9 -9 4 3 8 -2 8 -10 0
-9 6 -15 13 -14 6 2 11 -3 9 -9 -1 -7 4 -13 10 -13 9 0 8 -4 -2 -10 -10 -6
-11 -10 -2 -10 6 0 11 -5 10 -12 -2 -7 3 -12 11 -13 8 0 15 -8 17 -18 1 -11
-2 -15 -9 -10 -7 3 -4 -3 6 -14 20 -23 22 -39 5 -47 -7 -4 -3 -4 9 -2 20 4 21
2 12 -16 -10 -18 -9 -20 5 -15 18 7 32 -9 14 -16 -10 -4 -9 -8 2 -16 10 -7 11
-11 2 -11 -7 0 2 -14 20 -31 18 -17 27 -28 21 -24 -8 4 -13 0 -13 -10 0 -10 5
-13 13 -9 8 5 8 2 -2 -9 -10 -13 -10 -17 -1 -17 9 0 9 -4 -1 -17 -9 -10 -9
-14 -2 -10 8 5 18 -4 28 -23 8 -16 13 -30 9 -30 -4 0 -1 -7 7 -16 9 -12 10
-17 1 -23 -8 -5 -5 -11 8 -21 12 -8 20 -26 20 -42 0 -15 4 -28 9 -28 5 0 11
-9 14 -20 3 -13 1 -18 -6 -14 -7 3 -4 -1 6 -9 19 -16 24 -32 5 -21 -7 4 -8 3
-4 -5 4 -6 11 -9 16 -6 5 3 11 1 15 -5 3 -5 -1 -10 -10 -10 -13 0 -14 -2 -3
-14 7 -8 18 -12 23 -9 6 2 2 -2 -8 -10 -17 -14 -17 -16 4 -30 13 -10 19 -22
16 -31 -4 -11 -1 -16 10 -16 11 0 13 -4 6 -12 -10 -13 -10 -36 1 -64 4 -11 13
-13 28 -8 21 6 21 6 5 -10 -16 -17 -16 -19 5 -37 21 -17 21 -19 3 -13 -16 5
-17 4 -5 -4 9 -7 18 -7 26 -1 8 6 14 4 18 -6 3 -9 2 -13 -4 -10 -6 3 -10 1
-10 -4 0 -6 9 -11 21 -11 13 0 18 -4 13 -12 -5 -8 0 -7 11 2 11 9 16 10 11 3
-4 -8 -2 -13 4 -13 6 0 8 -5 4 -12 -5 -8 0 -7 11 2 11 9 16 10 11 3 -4 -8 -2
-13 4 -13 6 0 8 -5 4 -12 -5 -8 -1 -8 12 2 10 8 16 10 12 6 -4 -5 0 -15 10
-23 10 -9 11 -11 2 -7 -13 7 -13 5 -1 -9 15 -18 26 -23 16 -7 -3 6 -1 10 4 10
6 0 11 -5 11 -11 0 -7 9 -9 21 -6 16 4 18 3 9 -8 -8 -9 -6 -14 6 -19 9 -4 19
-4 22 -1 3 3 -1 5 -9 5 -12 0 -12 2 0 9 12 7 12 13 3 24 -12 14 -7 27 12 27 6
0 5 -4 -2 -9 -11 -7 -11 -9 0 -14 10 -3 14 3 14 19 0 23 -8 29 -31 24 -5 -1
-4 4 3 11 14 15 16 43 2 34 -6 -3 -7 1 -4 9 3 9 10 16 16 16 5 0 6 -5 2 -12
-4 -7 -3 -8 4 -4 17 10 15 26 -2 26 -8 0 -18 5 -22 12 -4 7 -3 8 4 4 11 -6 14
0 11 20 0 4 5 11 13 16 9 6 5 7 -12 3 -20 -6 -23 -5 -12 6 13 14 17 43 4 35
-4 -2 -8 4 -8 14 0 15 3 17 15 7 12 -10 13 -9 3 9 -8 16 -8 24 1 33 9 10 9 11
-4 6 -10 -4 -16 0 -16 10 0 8 5 15 10 15 5 0 3 8 -4 17 -12 14 -12 15 -1 9 11
-7 12 -4 3 12 -8 15 -8 22 2 25 9 4 8 6 -2 6 -11 1 -11 4 0 18 10 11 10 14 2
9 -8 -4 -13 -2 -13 4 0 6 -4 8 -10 5 -6 -3 -7 1 -3 10 5 14 8 14 15 3 8 -10 9
-9 5 4 -3 9 -1 19 6 22 7 3 1 3 -12 0 -14 -4 -21 -2 -17 4 3 5 8 26 10 46 4
28 2 36 -10 36 -9 0 -12 5 -8 11 3 6 0 15 -7 20 -12 7 -12 9 0 9 9 0 10 4 5
13 -8 11 -10 32 -4 47 6 15 6 48 -1 45 -4 -3 -10 2 -13 11 -4 10 -2 13 7 8 6
-4 9 -4 5 1 -4 4 -3 14 4 22 9 11 8 13 -3 11 -8 -2 -13 4 -12 15 1 13 -4 17
-15 12 -9 -3 -13 -3 -10 1 4 4 3 16 -3 27 -8 13 -8 17 -1 13 6 -4 10 2 9 14
-1 11 -6 20 -12 20 -5 0 -4 4 4 9 9 6 10 10 2 16 -9 5 -9 10 0 21 7 9 7 14 1
14 -5 0 -9 18 -8 39 1 28 -2 37 -10 30 -8 -6 -14 -4 -17 5 -4 9 -1 18 5 22 7
5 8 2 3 -6 -6 -9 -4 -11 4 -6 12 8 7 20 -10 22 -5 1 -12 2 -16 3 -4 0 2 8 13
16 18 14 18 14 0 15 -16 0 -17 2 -5 17 12 15 12 16 -1 8 -13 -8 -13 -7 -1 8
10 13 10 17 1 17 -10 0 -10 3 -1 14 9 11 9 16 0 22 -8 5 -9 3 -4 -7 8 -12 6
-12 -8 0 -15 12 -15 31 -1 31 3 0 2 -5 -2 -12 -5 -7 -3 -8 6 -3 10 6 7 12 -11
26 -27 21 -19 25 14 8 20 -9 20 -9 5 4 -10 8 -15 17 -11 20 3 4 -5 4 -18 2
-23 -4 -23 -4 -5 10 20 15 20 15 0 15 -14 0 -16 2 -5 9 11 7 11 9 0 14 -12 5
-12 6 0 6 11 1 11 4 1 16 -10 12 -10 15 1 15 12 0 12 2 1 9 -8 4 -13 11 -13
15 3 20 0 26 -11 20 -10 -6 -10 -4 0 7 6 7 12 18 12 23 0 6 -5 4 -10 -4 -8
-12 -10 -11 -11 8 -2 22 -5 40 -9 45 -6 7 -7 36 -1 32 4 -2 8 2 8 10 0 8 -4
12 -9 9 -11 -7 -10 3 4 29 10 19 9 20 -4 10 -12 -11 -17 -9 -27 13 -6 14 -7
23 -3 20 16 -10 9 29 -7 41 -12 10 -13 12 -2 13 11 0 11 3 1 15 -10 12 -10 15
1 15 10 1 8 4 -4 11 -9 5 -24 24 -33 41 -9 16 -11 27 -5 23 12 -7 10 22 -2 43
-5 7 -3 12 5 12 9 0 9 3 -2 10 -13 9 -13 10 0 10 13 0 13 2 0 9 -8 6 -18 7
-24 4 -5 -3 -6 -1 -2 6 4 6 12 9 17 6 5 -4 9 -1 9 4 0 6 -5 11 -11 11 -6 0 -9
7 -6 15 4 8 1 17 -5 21 -7 5 -8 2 -3 -7 8 -12 6 -12 -8 0 -13 10 -14 18 -6 32
7 14 6 19 -3 19 -9 0 -9 3 2 10 13 9 13 10 0 10 -13 0 -13 1 0 10 8 5 10 10 4
10 -6 0 -11 7 -12 15 -1 8 -3 22 -4 30 -1 8 -4 13 -7 11 -3 -2 -11 2 -18 9
-10 11 -10 15 0 19 9 3 9 7 -2 14 -10 8 -11 11 -1 17 10 6 10 10 -1 19 -29 22
-48 63 -36 75 8 8 7 11 -3 11 -13 0 -13 2 0 10 8 5 10 10 3 10 -6 0 -9 9 -6
20 3 13 14 20 29 20 17 0 24 -6 24 -20 0 -11 5 -20 11 -20 5 0 7 5 3 12 -4 7
-3 8 5 4 6 -4 8 -12 5 -18 -4 -6 0 -14 7 -19 12 -7 11 -9 -1 -9 -9 0 -2 -8 14
-19 27 -18 44 -61 24 -61 -4 0 0 -9 9 -20 13 -15 19 -17 26 -7 5 7 6 3 2 -12
-6 -18 -4 -22 6 -15 12 6 12 5 1 -8 -10 -13 -8 -18 13 -32 16 -11 22 -22 18
-33 -5 -12 -3 -14 7 -8 9 5 11 4 6 -3 -4 -7 -2 -12 3 -12 6 0 11 -5 11 -11 0
-5 -4 -7 -10 -4 -6 3 -7 -1 -4 -9 3 -9 11 -13 17 -9 6 4 8 0 4 -10 -4 -12 -1
-17 11 -17 15 0 15 -2 2 -10 -11 -7 -12 -10 -2 -10 9 0 11 -8 8 -22 -3 -13 -3
-17 0 -10 10 22 52 -44 46 -73 -2 -15 0 -25 7 -25 7 0 9 5 5 12 -4 7 -3 8 5 4
6 -4 9 -12 6 -17 -4 -5 0 -9 7 -9 9 0 9 -3 -2 -10 -13 -9 -13 -10 0 -10 13 0
13 -1 0 -10 -9 -6 -10 -10 -3 -10 6 0 14 -9 18 -19 3 -11 12 -18 18 -15 8 3
13 -4 13 -16 0 -11 -5 -20 -10 -20 -5 0 -1 -7 10 -16 10 -8 13 -12 5 -8 -10 5
-12 3 -7 -5 5 -7 15 -10 23 -7 8 3 11 2 8 -3 -3 -5 -1 -13 5 -16 8 -5 7 -11
-1 -21 -7 -8 -7 -14 -1 -14 5 0 13 -7 16 -16 5 -12 3 -14 -7 -8 -7 5 -1 -1 13
-13 27 -24 31 -38 18 -65 -6 -13 -4 -16 10 -13 12 2 19 -4 20 -18 6 -46 8 -53
20 -74 7 -13 9 -23 5 -23 -4 -1 3 -7 17 -15 14 -8 19 -14 13 -15 -19 0 -12
-50 7 -50 13 0 13 -2 1 -9 -11 -7 -12 -13 -4 -23 6 -7 11 -16 10 -20 -1 -4 6
-16 15 -27 12 -14 13 -21 5 -25 -9 -3 -8 -5 1 -5 7 -1 10 -5 7 -11 -3 -5 -1
-10 5 -10 6 0 8 -5 5 -10 -4 -6 -12 -7 -18 -3 -7 4 -6 0 2 -10 7 -9 20 -17 27
-17 8 0 14 -5 14 -11 0 -5 -6 -7 -12 -3 -8 5 -7 1 2 -10 18 -22 22 -49 7 -39
-7 3 -3 -4 8 -17 11 -13 14 -20 8 -16 -9 5 -11 2 -7 -8 3 -9 11 -13 17 -9 6 4
7 1 1 -8 -12 -20 -14 -40 -3 -33 5 3 6 10 3 16 -4 7 -2 8 5 4 6 -4 9 -12 5
-17 -3 -5 -1 -16 6 -24 8 -9 8 -15 0 -20 -8 -5 -7 -11 2 -23 7 -9 8 -13 3 -10
-6 4 -11 -2 -11 -12 0 -15 3 -17 15 -7 12 10 13 9 1 -13 -13 -24 -12 -24 5
-10 17 14 18 14 5 -10 -11 -21 -11 -23 1 -13 11 9 14 7 14 -12 0 -14 -4 -21
-10 -17 -6 4 -2 -1 8 -10 11 -10 15 -18 9 -18 -11 0 -10 -25 1 -36 3 -4 2 -16
-4 -27 -8 -14 -8 -18 0 -13 6 4 11 2 11 -4 0 -6 4 -9 8 -6 4 2 9 -5 9 -16 2
-19 1 -19 -11 -3 -10 14 -15 15 -21 5 -5 -9 -4 -11 3 -6 7 4 12 1 12 -8 0 -8
5 -16 10 -18 14 -4 22 -68 9 -68 -6 0 -3 -7 6 -16 9 -10 12 -21 7 -28 -7 -10
-9 -32 -2 -38 2 -2 4 -20 5 -40 1 -21 5 -41 10 -45 4 -5 5 -2 1 5 -4 6 -2 12
4 12 8 0 9 -7 5 -17 -16 -41 -13 -63 9 -63 12 0 16 -3 10 -8 -13 -8 -13 -60
-1 -79 4 -6 2 -15 -4 -19 -8 -4 -7 -9 2 -15 11 -7 11 -9 1 -9 -9 0 -10 -5 -3
-17 5 -10 5 -26 1 -39 -6 -15 -5 -25 3 -28 9 -5 9 -7 0 -12 -10 -4 -9 -9 2
-21 17 -17 20 -33 4 -33 -5 0 -7 5 -3 12 4 7 3 8 -4 4 -9 -5 -9 -13 -1 -28 8
-15 8 -22 -1 -28 -8 -5 -7 -9 5 -14 9 -3 13 -10 10 -16 -3 -5 -1 -10 6 -10 7
0 9 -3 6 -6 -3 -4 -2 -16 4 -27 7 -13 7 -17 1 -13 -6 3 -13 2 -17 -4 -3 -5 -1
-10 6 -10 8 0 7 -5 -2 -17 -10 -11 -10 -14 -1 -9 8 5 12 -2 13 -26 1 -18 1
-39 0 -45 -1 -7 3 -13 9 -13 5 0 10 -5 10 -11 0 -5 -6 -7 -12 -3 -10 5 -10 3
0 -7 11 -12 14 -12 22 1 8 12 10 10 10 -7 0 -13 5 -23 11 -23 8 0 8 -4 0 -14
-9 -11 -9 -16 0 -22 7 -4 9 -3 5 4 -4 6 1 10 13 9 11 0 17 -5 15 -9 -3 -4 0
-8 5 -8 6 0 11 -9 11 -20 0 -14 7 -20 23 -21 12 0 17 -3 10 -5 -8 -4 -5 -13 9
-29 12 -14 25 -22 30 -19 4 3 8 1 8 -5 0 -5 -6 -12 -12 -14 -12 -5 16 -11 34
-8 4 0 5 -6 1 -15 -4 -10 2 -17 16 -21 19 -5 26 -19 22 -50 -1 -7 3 -13 8 -13
13 0 11 -50 -3 -68 -5 -7 -5 -12 0 -11 20 3 22 -2 14 -31 -5 -19 -5 -28 1 -25
5 4 9 -1 9 -10 0 -10 -5 -13 -12 -9 -7 4 -8 3 -4 -5 4 -6 9 -22 12 -36 3 -20
1 -23 -13 -19 -14 5 -15 4 -4 -4 8 -6 15 -34 16 -76 3 -53 0 -68 -13 -77 -14
-8 -14 -10 -1 -6 12 4 15 -7 16 -63 0 -58 -2 -68 -16 -63 -9 2 -6 -2 7 -9 12
-8 20 -17 17 -20 -11 -10 -14 -48 -4 -48 6 0 6 -8 -1 -20 -8 -15 -8 -20 2 -20
9 0 9 -3 -2 -10 -8 -5 -10 -10 -4 -10 7 0 9 -11 6 -26 -4 -21 -2 -25 9 -19 12
8 12 6 0 -8 -11 -14 -18 -68 -11 -87 6 -18 5 -52 -2 -56 -5 -3 -4 -12 3 -20 6
-8 8 -14 5 -14 -4 0 -2 -9 4 -19 7 -14 7 -22 0 -26 -6 -4 -7 -12 -3 -18 11
-18 12 -37 2 -37 -6 0 -6 -7 0 -19 6 -10 7 -21 4 -25 -3 -3 -1 -6 5 -6 7 0 12
-5 12 -11 0 -5 -4 -8 -8 -5 -5 3 -9 -1 -9 -9 0 -8 5 -15 10 -15 5 0 4 -6 -2
-13 -6 -8 -8 -17 -4 -21 12 -12 12 -36 0 -36 -8 0 -8 -3 -2 -8 16 -11 19 -45
3 -37 -8 5 -7 1 2 -9 19 -19 15 -90 -4 -79 -7 4 -6 1 1 -9 7 -8 10 -18 6 -22
-4 -4 1 -4 11 0 16 6 17 5 6 -16 -11 -21 -10 -22 6 -16 17 6 17 6 1 -12 -19
-21 -22 -42 -7 -42 6 0 10 -16 10 -36 0 -25 4 -33 13 -29 6 4 4 0 -6 -8 -10
-8 -15 -17 -10 -20 4 -3 7 -20 7 -39 -1 -18 4 -39 10 -47 9 -12 8 -13 -2 -7
-11 7 -12 4 -3 -11 7 -14 7 -24 -2 -33 -9 -10 -9 -11 1 -6 8 5 12 0 12 -14 0
-12 4 -19 9 -16 5 4 8 -2 6 -11 -1 -10 2 -24 8 -30 6 -9 6 -13 -1 -13 -6 0
-12 6 -15 13 -3 6 -4 2 -4 -10 1 -12 4 -21 7 -21 18 2 21 -4 9 -19 -12 -14
-12 -16 0 -8 11 6 13 4 8 -10 -4 -9 -3 -23 3 -30 8 -10 8 -15 -1 -20 -8 -6 -7
-10 2 -16 12 -7 12 -12 1 -30 -8 -11 -9 -18 -3 -15 9 6 24 -9 27 -26 1 -5 2
-9 4 -10 1 -2 3 -13 4 -25 2 -13 -2 -20 -8 -16 -6 4 -3 -3 7 -14 9 -11 14 -23
10 -27 -14 -13 -12 -38 2 -32 8 3 17 0 21 -6 4 -7 3 -8 -4 -4 -19 11 -14 -5 6
-21 11 -10 12 -12 2 -8 -8 4 -6 -1 4 -9 20 -16 20 -16 0 -16 -16 0 -16 -2 -4
-10 18 -11 20 -30 6 -50 -10 -13 -9 -13 6 -1 15 11 19 11 24 -5 4 -11 9 -23
12 -28 3 -5 -1 -6 -9 -1 -8 5 -6 -1 5 -13 15 -17 16 -25 7 -36 -10 -11 -8 -17
8 -28 11 -8 20 -23 21 -34 3 -88 6 -114 13 -114 5 0 4 -7 -4 -16 -10 -13 -10
-17 1 -24 8 -5 11 -12 7 -16 -4 -4 -1 -14 6 -22 8 -11 8 -14 0 -9 -6 4 -14 3
-18 -3 -3 -5 1 -10 9 -10 10 0 13 -6 9 -17 -5 -12 -3 -14 8 -9 8 4 5 0 -5 -8
-18 -14 -15 -20 6 -17 4 0 5 -6 1 -14 -4 -13 -8 -13 -22 -3 -14 11 -14 11 -3
-3 7 -10 11 -28 8 -42 -2 -14 3 -35 11 -47 15 -22 15 -22 -8 -10 l-24 13 23
-26 c19 -20 20 -25 7 -24 -14 2 -17 -8 -18 -51 -1 -30 1 -56 6 -59 4 -3 3 -11
-4 -19 -9 -11 -9 -14 1 -14 10 0 10 -3 0 -15 -10 -12 -10 -15 1 -15 9 0 10 -3
4 -8 -9 -6 -12 -27 -5 -34 1 -2 3 -22 3 -45 2 -34 0 -39 -12 -30 -12 10 -13 9
-4 -8 6 -11 8 -25 6 -32 -2 -7 1 -22 7 -34 8 -15 9 -19 1 -15 -15 10 -14 -7 2
-23 10 -11 10 -13 0 -7 -12 6 -17 -5 -14 -26 0 -4 -5 -5 -13 -2 -8 3 -17 0
-22 -7 -4 -8 -3 -10 4 -5 16 10 15 -7 0 -23 -10 -11 -10 -13 0 -7 15 9 16 -6
0 -22 -9 -9 -9 -12 2 -12 12 0 13 -2 1 -9 -10 -6 -10 -10 -1 -16 8 -5 5 -14
-12 -32 -13 -14 -18 -24 -13 -23 23 5 23 -1 0 -26 -18 -19 -22 -31 -15 -39 7
-8 4 -18 -11 -31 -14 -13 -20 -14 -17 -4 2 8 -3 15 -9 16 -7 1 -17 2 -23 3 -5
0 -10 6 -10 12 0 5 5 7 12 3 7 -4 8 -3 4 4 -4 6 -13 9 -21 5 -9 -3 -15 1 -15
8 0 11 -3 11 -10 -1 -8 -13 -10 -13 -10 1 0 9 -7 23 -16 30 -19 15 -47 21 -39
8 4 -5 -1 -6 -9 -3 -9 3 -13 10 -10 15 3 5 0 9 -6 9 -6 0 -9 4 -6 9 4 5 -3 7
-14 4 -12 -3 -22 1 -26 10 -3 9 -13 14 -22 11 -14 -5 -13 -3 2 10 18 15 18 15
-10 12 -16 -2 -38 2 -49 10 -10 8 -14 14 -9 14 6 0 15 -5 21 -11 8 -8 13 -8
18 0 3 6 3 11 -2 10 -14 -2 -53 13 -53 21 0 4 -7 11 -16 14 -12 5 -14 3 -8 -7
5 -7 1 -4 -10 7 -10 12 -23 21 -30 21 -26 2 -46 18 -47 39 0 11 -3 15 -6 9 -2
-7 -9 -13 -14 -13 -6 0 -7 5 -4 10 4 6 3 10 -2 9 -21 -4 -34 2 -27 13 5 8 2 9
-9 5 -12 -4 -17 -1 -18 11 0 11 -2 12 -6 4 -3 -8 -11 -5 -24 12 -17 22 -66 45
-53 25 8 -14 -6 -11 -22 5 -17 17 -19 30 -2 20 7 -4 8 -3 4 4 -4 6 -13 9 -21
6 -18 -7 -40 32 -23 42 7 5 8 3 3 -6 -6 -9 -4 -11 5 -5 10 6 10 10 -2 19 -13
9 -13 13 -2 24 16 14 7 45 -10 35 -6 -4 -5 1 3 11 11 13 16 14 22 4 5 -8 9 -8
9 -2 0 6 -9 19 -20 29 -11 10 -17 23 -13 28 12 19 12 61 1 74 -8 10 -6 13 6
13 10 0 15 -4 11 -9 -3 -5 -1 -12 4 -15 13 -8 8 19 -7 37 -8 9 -9 18 -3 21 5
3 8 14 6 24 -2 9 -4 21 -4 25 -1 5 -7 5 -13 1 -10 -6 -10 -5 -1 7 10 12 10 18
1 27 -7 7 -8 12 -2 12 6 0 15 -5 22 -12 9 -9 9 -5 0 14 -7 15 -17 24 -22 21
-5 -4 -6 0 0 8 13 21 14 38 2 45 -6 4 -5 10 3 15 11 7 11 9 -1 9 -13 0 -13 1
0 10 13 9 13 10 0 10 -13 0 -13 1 0 10 12 8 12 10 1 10 -11 0 -11 3 0 17 8 9
9 14 3 10 -7 -4 -14 0 -18 8 -3 8 -1 17 4 20 11 7 2 35 -12 35 -6 0 -5 -6 2
-15 7 -9 8 -15 2 -15 -15 0 -22 26 -9 39 6 6 7 11 1 11 -5 0 -2 5 6 11 13 9
13 10 0 6 -8 -2 -14 -10 -13 -16 2 -6 -1 -11 -6 -11 -10 0 -8 46 2 57 4 3 -1
12 -11 20 -9 8 -12 12 -6 9 7 -3 14 3 17 15 5 17 3 18 -10 7 -14 -11 -15 -10
-8 11 6 19 4 23 -8 18 -11 -4 -13 0 -9 15 4 16 2 19 -8 13 -10 -6 -11 -4 -4 6
14 22 13 38 -1 33 -10 -4 -12 1 -8 15 6 22 -5 27 -25 11 -9 -7 -9 -7 -2 2 14
17 13 41 -2 32 -8 -5 -9 -2 -5 10 4 10 1 24 -6 31 -36 41 -38 45 -25 45 9 0 9
3 -2 9 -8 6 -17 8 -20 6 -3 -1 -12 4 -20 13 -13 14 -12 15 3 9 14 -5 15 -4 4
13 -6 11 -15 20 -20 20 -4 0 -5 -5 -1 -12 4 -7 3 -8 -4 -4 -7 4 -12 14 -12 22
0 8 -6 14 -14 14 -8 0 -18 9 -21 20 -4 11 -11 17 -17 14 -7 -5 -9 -1 -5 9 4
11 2 14 -9 10 -7 -3 -14 0 -14 7 0 6 -5 8 -12 4 -7 -5 -9 -2 -5 9 4 11 2 14
-9 10 -7 -3 -14 0 -14 7 0 9 -4 9 -17 -1 -11 -10 -14 -10 -9 -1 6 11 -18 18
-47 13 -5 -1 -6 3 -2 8 3 6 13 8 23 5 12 -4 13 -3 5 3 -7 5 -27 8 -44 7 -24
-2 -29 1 -24 13 5 13 3 14 -10 3 -13 -11 -18 -11 -28 0 -9 10 -9 11 1 6 6 -4
12 -5 12 -2 0 3 -10 10 -21 17 -15 7 -19 8 -15 0 5 -7 1 -9 -8 -5 -9 3 -13 11
-10 16 4 6 -2 5 -14 -1 -14 -7 -23 -8 -27 -1 -4 6 -12 7 -18 3 -9 -5 -8 -2 0
8 10 13 10 16 0 17 -52 5 -91 27 -80 45 3 5 -3 4 -13 -1 -14 -7 -25 -6 -38 4
-10 7 -23 11 -28 8 -5 -3 -8 -2 -7 3 5 21 -14 40 -37 37 -13 -1 -22 1 -19 5 2
5 -3 17 -11 27 -9 10 -13 13 -9 7 12 -24 -10 -13 -38 18 -14 17 -31 28 -37 24
-10 -6 -14 6 -11 35 1 9 -1 11 -6 5 -15 -19 -33 -15 -33 6 0 18 -2 19 -15 9
-13 -11 -14 -10 -9 5 5 11 3 16 -2 12 -6 -3 -23 8 -40 26 -16 17 -22 27 -14
23 12 -7 13 -7 2 5 -11 11 -14 12 -21 1 -7 -11 -9 -11 -14 2 -3 8 -1 18 5 22
7 5 8 2 3 -6 -5 -9 -4 -11 4 -6 19 12 3 24 -28 22 -20 -1 -27 2 -24 11 3 7 9
10 14 7 5 -3 6 2 3 11 -5 11 -10 13 -19 5 -11 -9 -12 -7 -8 10 3 11 2 20 -3
19 -5 -1 -15 -1 -23 0 -11 1 -11 4 -1 17 11 12 11 15 0 12 -8 -2 -14 3 -15 10
0 8 -8 19 -17 26 -10 7 -18 19 -18 27 0 12 -2 12 -9 1 -7 -12 -17 3 -25 40 -3
14 -16 21 -16 8 0 -7 -3 -10 -6 -7 -4 4 -2 13 5 21 9 11 7 18 -13 34 -14 10
-22 22 -19 26 6 5 -11 10 -29 7 -8 -1 -5 20 5 36 8 13 -8 27 -21 19 -4 -2 -9
5 -9 16 -1 12 -8 25 -15 29 -10 7 -10 9 2 9 10 0 11 3 4 8 -6 4 -10 15 -8 25
1 9 -2 17 -8 17 -5 0 -6 10 -3 23 7 22 7 22 -10 2 -9 -11 -14 -14 -10 -7 3 6
1 12 -6 12 -7 0 -4 7 7 15 10 8 15 15 9 14 -23 -3 -27 2 -14 18 8 9 9 14 3 10
-17 -10 -35 37 -21 53 9 10 9 11 0 6 -15 -8 -23 15 -11 37 6 12 5 19 -6 23
-12 5 -13 11 -5 25 7 13 6 19 -1 19 -6 0 -8 5 -3 13 11 18 13 38 2 31 -14 -8
-11 20 4 35 10 11 7 12 -13 6 -15 -4 -20 -3 -13 2 7 5 11 19 8 31 -2 13 0 20
6 17 5 -4 6 -11 3 -17 -4 -7 -2 -8 5 -4 9 6 8 13 -3 31 -12 17 -13 26 -4 31 7
5 8 3 3 -6 -5 -9 -4 -11 4 -6 9 6 9 11 0 22 -9 11 -6 16 16 24 32 12 45 13 26
1 -11 -7 -9 -10 8 -16 11 -3 21 -12 21 -18 0 -7 4 -6 10 3 9 13 10 13 10 0 0
-13 1 -13 10 0 8 12 10 12 10 1 0 -11 3 -11 15 -1 11 9 15 9 15 1 0 -8 5 -9
19 -1 14 7 21 6 24 -3 4 -9 6 -9 6 1 1 6 8 12 17 12 8 0 13 4 10 9 -4 5 5 8
19 7 14 -2 33 3 42 10 22 17 37 18 27 2 -4 -7 -3 -8 4 -4 7 4 12 14 12 22 0 8
6 14 13 14 14 0 41 38 42 60 0 8 4 21 9 29 7 11 6 12 -5 5 -23 -14 -38 -13
-32 2 3 8 10 11 16 7 6 -3 7 -1 3 6 -6 9 -11 9 -22 0 -14 -11 -20 -1 -15 25 1
5 -6 3 -15 -5 -12 -9 -15 -9 -10 -1 4 7 2 12 -4 12 -6 0 -8 5 -5 10 3 6 -3 10
-15 10 -14 0 -19 4 -14 12 5 8 2 9 -10 5 -9 -4 -15 -3 -12 1 2 4 -2 16 -10 27
-9 12 -14 14 -14 5 0 -9 -5 -8 -16 6 -15 18 -15 18 -10 0 6 -16 4 -17 -9 -6
-8 7 -12 17 -8 23 4 6 0 8 -10 4 -12 -4 -17 -1 -17 10 0 13 -2 14 -17 2 -14
-12 -16 -12 -8 0 6 11 4 13 -9 8 -12 -5 -19 1 -26 19 -9 22 -13 24 -25 14 -8
-7 -15 -8 -15 -3 0 5 -9 9 -20 10 -11 1 -20 -3 -20 -8 0 -6 -5 -7 -11 -3 -8 4
-3 12 12 21 13 8 16 12 7 9 -24 -7 -49 4 -41 18 4 6 -1 5 -10 -3 -14 -11 -17
-11 -17 0 0 11 -2 11 -10 -1 -7 -11 -10 -11 -10 -2 0 7 -6 12 -12 11 -35 -4
-59 2 -53 14 4 6 -1 3 -9 -7 -14 -18 -21 -15 -17 7 1 5 -3 6 -8 2 -6 -3 -8
-13 -5 -23 3 -9 -2 -6 -10 8 -8 14 -15 20 -16 14 0 -7 -7 -15 -16 -18 -14 -5
-15 -4 -5 8 9 11 8 15 -5 20 -21 8 -24 8 -24 -5 0 -5 6 -7 13 -3 8 5 8 3 -1
-7 -11 -12 -16 -11 -29 6 -15 19 -15 19 -10 -5 5 -22 5 -23 -7 -8 -15 21 -27
13 -18 -10 5 -14 4 -15 -10 -2 -12 12 -13 18 -4 29 9 12 8 13 -2 7 -7 -4 -17
-18 -22 -30 -8 -20 -9 -20 -10 4 0 18 -3 21 -9 11 -5 -8 -18 -11 -32 -7 -13 3
-18 3 -11 0 17 -8 15 -21 -3 -21 -8 0 -15 5 -15 10 0 5 -6 4 -14 -2 -10 -8
-16 -9 -21 -2 -4 7 -12 7 -25 -1 -10 -7 -16 -17 -12 -23 3 -5 -2 -4 -11 4 -15
12 -17 12 -11 -3 5 -12 2 -15 -10 -10 -10 4 -16 1 -16 -7 0 -9 -3 -10 -8 -4
-10 15 -35 18 -26 4 5 -8 2 -10 -8 -6 -9 3 -25 -3 -36 -13 -11 -10 -23 -16
-26 -13 -3 4 -6 1 -6 -5 0 -6 -7 -9 -15 -6 -11 5 -13 2 -8 -12 4 -12 3 -15 -5
-10 -7 4 -12 2 -12 -3 0 -6 -9 -11 -21 -11 -13 0 -18 -4 -13 -12 5 -8 0 -7
-11 2 -10 8 -16 10 -13 5 4 -6 0 -21 -9 -35 -10 -17 -12 -19 -8 -5 5 15 3 17
-6 8 -6 -6 -18 -9 -25 -6 -9 3 -12 0 -9 -9 4 -9 -4 -22 -19 -32 -15 -9 -26
-24 -26 -34 0 -13 -2 -14 -9 -4 -6 10 -11 5 -21 -17 -7 -17 -17 -31 -22 -31
-5 0 -6 6 -2 13 6 9 4 9 -8 -1 -9 -7 -15 -22 -13 -32 2 -11 -1 -19 -8 -17 -7
1 -11 -6 -11 -15 1 -9 -4 -14 -11 -12 -7 3 -16 0 -21 -7 -5 -8 -3 -10 7 -3 10
6 9 1 -3 -16 -9 -14 -22 -24 -29 -22 -9 2 -8 -2 2 -14 13 -16 12 -17 -5 -11
-17 7 -17 6 -5 -10 12 -15 12 -16 -5 -10 -17 7 -17 6 -5 -10 9 -11 10 -14 2
-9 -8 4 -13 2 -13 -4 0 -6 -5 -8 -11 -4 -8 5 -8 1 0 -14 8 -15 8 -23 -1 -28
-7 -5 -8 -3 -3 6 5 9 4 11 -4 6 -9 -6 -9 -11 -1 -21 9 -11 8 -13 -9 -10 -14 2
-18 -1 -14 -11 3 -8 -1 -14 -8 -14 -11 0 -11 -3 1 -10 9 -6 11 -10 3 -10 -7 0
-10 -7 -6 -17 5 -12 3 -14 -7 -8 -8 5 -11 4 -6 -3 3 -5 0 -13 -6 -16 -7 -3 -6
-4 4 -3 9 1 16 -2 15 -8 -1 -5 -6 -9 -11 -7 -5 2 -6 -5 -2 -14 6 -15 4 -15
-10 -3 -16 13 -16 12 -4 -11 12 -22 11 -23 -1 -13 -12 10 -15 8 -15 -7 0 -10
5 -16 11 -12 5 3 4 -2 -4 -11 -11 -14 -11 -17 0 -17 12 0 12 -2 1 -9 -8 -4
-13 -11 -13 -15 3 -20 0 -26 -11 -20 -7 4 -5 -1 4 -11 16 -17 16 -19 0 -32 -9
-8 -11 -11 -3 -7 10 5 11 1 6 -16 -5 -15 -4 -20 4 -16 7 5 8 1 4 -10 -4 -12
-3 -15 5 -10 18 11 14 0 -5 -15 -14 -12 -16 -12 -8 0 5 9 4 12 -3 7 -6 -4 -8
-14 -5 -23 5 -12 3 -14 -8 -8 -11 7 -12 6 -3 -6 6 -8 10 -28 9 -46 -1 -18 2
-30 7 -27 5 3 6 9 4 13 -3 4 1 8 9 8 11 0 12 -4 4 -13 -6 -7 -7 -19 -3 -25 5
-9 2 -10 -9 -6 -10 3 -17 2 -17 -3 0 -6 10 -10 23 -11 12 0 16 -3 10 -6 -7 -2
-13 -11 -13 -19 0 -10 5 -12 13 -8 9 6 9 4 -1 -8 -9 -12 -10 -18 -2 -23 8 -5
8 -11 -1 -21 -9 -11 -8 -14 2 -14 11 0 11 -2 -1 -10 -10 -6 -11 -10 -2 -10 6
0 12 -5 12 -11 0 -5 -6 -7 -12 -3 -8 4 -10 3 -5 -2 5 -5 13 -9 19 -9 6 0 14
-10 19 -22 7 -18 5 -21 -9 -16 -15 6 -16 5 -2 -13 8 -10 20 -22 25 -26 6 -5 4
-8 -5 -8 -13 0 -13 -1 0 -10 13 -9 13 -11 0 -20 -13 -9 -7 -14 13 -11 4 0 7
-6 7 -15 0 -8 4 -12 10 -9 6 3 7 -1 4 -9 -3 -9 -11 -16 -18 -16 -6 0 -3 -5 7
-11 9 -6 15 -14 12 -19 -3 -5 6 -17 20 -26 14 -9 24 -23 21 -30 -3 -7 0 -15 7
-18 8 -3 7 -5 -3 -5 -10 -1 -7 -6 9 -17 15 -11 21 -23 18 -35 -3 -12 2 -25 15
-33 12 -9 17 -19 12 -27 -5 -9 -2 -11 9 -6 9 3 19 2 22 -3 4 -6 2 -10 -3 -10
-17 0 -9 -30 10 -36 10 -3 18 -12 18 -20 0 -9 5 -12 12 -8 8 5 9 2 5 -10 -4
-9 -3 -15 2 -12 8 6 37 -20 43 -39 2 -5 6 -9 10 -8 5 2 7 0 7 -5 -3 -19 2 -33
11 -27 6 3 10 -1 10 -10 0 -9 -4 -13 -10 -10 -6 3 -7 -1 -3 -10 5 -13 7 -14
14 -3 8 12 13 4 10 -14 0 -5 2 -7 7 -7 19 3 25 -2 12 -11 -10 -6 -11 -10 -2
-10 15 0 52 -36 52 -51 0 -5 5 -7 12 -3 7 5 9 2 5 -9 -4 -11 -2 -14 8 -11 8 4
15 -3 17 -18 2 -17 8 -22 22 -20 18 3 18 2 5 -14 -13 -16 -12 -17 5 -11 16 6
17 5 6 -8 -11 -13 -10 -14 5 -8 14 5 17 3 12 -9 -6 -16 8 -19 29 -6 6 4 11 1
11 -7 0 -8 -4 -12 -9 -9 -4 3 -8 0 -8 -5 0 -6 5 -11 11 -11 5 0 7 -6 3 -12 -5
-8 0 -7 11 2 11 9 16 10 11 3 -4 -8 3 -23 18 -38 27 -27 34 -41 14 -29 -7 4
-8 3 -4 -5 4 -6 12 -9 17 -6 5 4 17 1 26 -5 16 -10 16 -11 -2 -6 l-20 6 20
-15 c11 -8 25 -19 31 -24 7 -5 16 -7 20 -3 5 4 3 0 -4 -9 -14 -19 -6 -30 16
-22 10 4 13 2 8 -5 -4 -7 -1 -12 10 -12 13 0 14 -3 4 -15 -10 -12 -8 -14 8
-10 13 2 22 -3 25 -16 3 -10 13 -19 22 -19 9 0 13 -4 10 -10 -3 -5 2 -10 12
-10 15 0 16 -2 3 -10 -13 -9 -13 -10 0 -11 8 -1 18 -1 23 0 4 0 7 -6 7 -14 0
-9 8 -19 18 -22 28 -11 44 -30 29 -36 -7 -3 -4 -6 6 -6 11 -1 15 -6 11 -13 -4
-6 -3 -8 4 -5 13 9 42 -2 42 -15 0 -6 -7 -4 -17 3 -15 13 -15 12 -3 -8 12 -18
17 -20 29 -10 12 9 13 9 7 0 -4 -7 -2 -13 3 -13 6 0 11 -7 11 -16 0 -8 5 -12
10 -9 6 3 10 1 10 -5 0 -6 5 -8 12 -4 8 5 9 2 4 -11 -6 -16 -4 -16 10 -4 16
13 16 12 4 -11 -12 -23 -12 -24 4 -11 15 13 18 12 23 -7 3 -12 12 -22 20 -22
8 0 11 -5 8 -10 -8 -13 17 -9 28 5 5 6 7 3 4 -7 -8 -23 16 -53 37 -45 11 4 15
3 11 -4 -7 -11 31 -49 49 -49 6 0 4 -5 -4 -11 -12 -9 -11 -10 8 -6 12 3 20 1
16 -4 -3 -5 2 -9 10 -9 10 0 16 -9 16 -22 0 -19 2 -20 10 -8 9 13 10 13 11 0
1 -8 1 -18 0 -22 0 -5 6 -8 15 -8 9 0 12 5 8 12 -4 7 -3 8 4 4 6 -4 8 -14 5
-22 -5 -14 -3 -15 18 -4 20 10 22 10 12 -1 -18 -18 -16 -25 7 -26 30 -3 52
-27 37 -43 -10 -10 -8 -10 10 -1 18 9 25 7 47 -20 14 -17 30 -28 36 -24 6 4 7
-1 3 -12 -3 -10 -2 -14 2 -10 5 4 15 -3 22 -15 7 -13 12 -17 13 -10 0 6 5 12
11 12 5 0 7 -5 3 -12 -5 -8 -2 -9 10 -5 14 6 15 4 5 -14 -8 -16 -8 -20 0 -14
7 4 19 1 28 -7 14 -11 16 -11 8 2 -6 11 -5 12 4 4 7 -6 14 -20 16 -30 2 -11 4
-21 4 -23 1 -2 9 3 18 10 11 10 14 10 9 1 -4 -7 -2 -12 8 -12 10 0 13 -7 11
-22 -3 -16 -2 -19 7 -10 9 9 14 6 23 -11 6 -12 19 -21 28 -21 9 1 14 -2 11 -7
-3 -5 -1 -9 4 -9 5 0 14 -10 20 -22 6 -13 11 -17 11 -10 1 6 5 12 10 12 6 0 8
-9 6 -21 -4 -18 -2 -19 12 -7 12 9 15 9 9 1 -4 -8 -2 -13 4 -13 6 0 8 -4 5
-10 -3 -5 3 -10 14 -10 12 0 21 -5 21 -11 0 -5 -5 -7 -12 -3 -7 5 -8 3 -4 -5
5 -7 14 -10 22 -7 17 7 19 -10 2 -18 -7 -3 0 -3 16 -1 28 4 28 4 10 -18 -10
-12 -12 -16 -4 -10 20 18 30 16 30 -7 0 -23 10 -25 30 -8 12 11 12 10 0 -5
-11 -15 -11 -20 0 -30 7 -7 10 -7 7 -1 -3 6 0 11 8 11 8 0 12 -4 9 -9 -3 -4 1
-15 9 -23 9 -8 18 -20 20 -27 4 -10 7 -10 15 0 7 11 10 11 15 -3 4 -9 3 -13
-3 -10 -6 3 -10 1 -10 -4 0 -6 5 -11 10 -11 6 0 10 -6 10 -13 0 -8 12 -24 27
-38 14 -13 23 -18 18 -10 -5 9 -4 12 3 7 7 -4 12 -14 12 -22 0 -8 4 -14 8 -14
5 0 17 -7 28 -16 10 -8 12 -12 4 -8 -12 7 -13 5 -3 -8 7 -8 10 -18 6 -22 -4
-4 1 -4 10 0 13 5 20 1 24 -15 3 -11 9 -21 14 -21 5 0 9 -7 9 -16 0 -9 5 -12
13 -8 8 6 8 3 -1 -9 -12 -14 -11 -16 8 -12 17 3 19 1 11 -9 -9 -10 -7 -16 6
-21 10 -5 21 -8 24 -7 4 1 4 -8 1 -20 -3 -13 -1 -19 5 -15 12 7 28 -20 32 -53
0 -5 7 -10 15 -10 9 0 12 -7 9 -22 -4 -19 -3 -20 6 -8 9 13 11 13 11 -2 0 -10
5 -18 11 -18 6 0 9 -9 6 -19 -4 -15 0 -19 15 -16 17 4 18 2 6 -12 -11 -14 -11
-16 1 -8 11 6 13 4 8 -8 -3 -10 -2 -17 3 -17 6 0 10 -7 10 -16 0 -13 3 -14 15
-4 8 6 20 8 27 4 20 -13 39 -13 31 -1 -4 7 0 8 12 3 16 -6 16 -4 4 11 -12 15
-12 16 3 11 10 -4 19 -1 22 9 5 12 9 13 21 3 15 -12 21 -4 16 23 -1 5 3 6 9 2
6 -3 8 -11 4 -16 -3 -6 3 -5 14 2 12 7 18 17 15 22 -3 4 3 7 13 5 10 -2 19 2
19 9 0 6 4 15 9 20 5 5 6 3 2 -4 -4 -7 -3 -13 3 -13 5 0 15 8 20 18 6 9 11 13
11 8 0 -5 8 -2 17 5 11 9 14 10 9 2 -5 -9 -2 -11 8 -7 9 3 13 11 9 17 -4 6 0
8 11 4 12 -5 19 0 26 16 5 12 9 16 9 8 1 -11 4 -11 16 -1 8 7 15 9 16 4 0 -5
4 1 9 13 6 15 15 21 25 17 8 -3 15 -1 15 5 0 6 7 11 15 11 8 0 15 6 15 14 0 8
8 17 18 21 14 5 15 4 5 -6 -23 -23 -13 -29 10 -6 13 12 21 27 19 32 -3 6 1 4
9 -3 7 -6 18 -12 24 -12 5 0 4 4 -4 9 -22 14 -4 33 19 21 16 -9 18 -8 13 7 -5
13 -3 15 12 10 15 -6 16 -5 5 8 -11 13 -10 14 4 9 9 -3 16 -1 16 5 0 6 5 11
11 11 5 0 7 -6 3 -12 -4 -7 2 -5 13 5 11 9 23 14 28 10 4 -5 5 -3 1 4 -4 7
-14 9 -24 6 -13 -4 -13 -2 3 10 11 9 21 12 23 7 2 -5 12 -1 22 7 10 9 16 21
13 27 -3 6 -3 8 2 4 4 -4 25 8 46 27 26 23 44 32 56 28 12 -5 15 -2 10 10 -4
12 -1 15 14 12 12 -3 17 0 13 7 -5 8 -1 9 11 4 15 -5 16 -4 6 8 -9 11 -9 16 0
22 8 4 9 3 5 -4 -4 -7 -2 -12 3 -12 6 0 11 8 11 18 0 14 2 15 10 2 8 -13 10
-12 10 3 0 9 5 17 11 17 5 0 7 6 3 13 -6 9 -4 9 8 -1 13 -10 18 -10 24 -1 4 8
3 9 -4 5 -7 -4 -12 -2 -12 3 0 6 7 11 16 11 9 0 12 5 8 13 -5 8 -2 7 9 -2 15
-12 17 -12 11 4 -6 14 -4 16 6 10 10 -6 12 -4 7 7 -4 12 -1 14 15 10 13 -3 19
-1 15 5 -4 6 1 17 10 24 14 12 16 12 9 -1 -4 -8 0 -6 8 4 9 11 16 23 16 28 0
4 8 4 17 1 12 -5 15 -2 10 10 -4 12 -2 14 11 10 15 -6 15 -5 3 10 -12 15 -12
17 0 12 8 -3 23 2 34 11 11 8 14 13 8 9 -7 -3 -13 -1 -13 4 0 6 7 11 16 11 8
0 13 4 9 9 -3 6 3 8 14 6 14 -2 18 1 14 11 -3 9 1 14 12 14 10 0 13 5 9 12 -5
7 -2 9 9 5 11 -4 14 -2 10 9 -3 8 1 14 11 14 9 0 16 5 16 11 0 5 4 7 10 4 6
-4 7 1 3 10 -3 10 0 21 8 26 20 12 31 11 23 -3 -4 -7 -3 -8 5 -4 6 4 9 12 6
17 -4 5 -1 17 4 26 6 11 11 13 11 5 0 -7 5 -10 10 -7 6 4 8 11 5 16 -4 5 1 12
9 15 9 3 13 10 10 16 -3 5 2 8 12 6 10 -2 19 3 20 10 1 6 2 17 3 23 0 6 10 9
22 6 16 -4 18 -3 8 9 -11 13 -5 19 15 15 5 -1 4 5 -3 13 -11 13 -10 15 8 11
15 -3 18 0 14 12 -5 13 -2 15 12 9 18 -7 18 -6 0 16 -11 13 -16 20 -11 16 14
-11 47 11 44 30 -2 9 2 16 9 15 7 -2 17 6 23 17 6 11 15 18 20 15 5 -3 7 3 5
14 -3 15 0 18 12 14 11 -4 14 -2 9 5 -4 7 -2 12 4 12 6 0 8 5 5 10 -3 6 -1 10
5 10 6 0 8 5 5 11 -4 6 0 9 10 7 12 -2 19 5 21 20 3 16 0 21 -8 16 -7 -5 -8
-3 -4 5 5 7 13 10 20 8 6 -2 26 15 44 39 18 24 28 44 23 44 -6 0 -17 -13 -26
-30 -9 -17 -18 -30 -21 -30 -2 0 2 13 11 29 15 30 32 45 50 46 6 1 9 6 7 13
-1 7 5 15 13 18 8 4 15 10 15 16 0 5 -4 6 -10 3 -6 -3 -7 1 -4 10 4 9 12 14
20 11 8 -3 11 2 9 14 -3 13 1 17 11 13 16 -6 16 16 -1 30 -6 5 0 7 13 4 18 -4
21 -3 12 8 -8 10 -6 17 10 28 11 8 20 19 18 24 -2 6 8 20 22 31 17 14 20 21
10 22 -9 0 -5 6 10 17 14 10 29 17 34 15 5 -2 4 3 -2 11 -9 10 -9 17 1 27 10
10 9 11 -3 5 -12 -7 -13 -6 -3 7 7 8 9 18 5 22 -4 4 -1 6 7 4 7 -1 16 3 19 11
3 10 0 11 -9 5 -12 -7 -12 -5 0 9 15 19 26 23 15 5 -4 -7 -3 -8 5 -4 9 6 9 11
1 21 -8 9 -8 15 0 20 6 3 7 12 3 18 -4 8 -1 7 9 -1 13 -10 18 -10 24 -1 4 8 3
9 -4 5 -7 -4 -12 -2 -12 3 0 6 8 11 18 11 9 0 13 4 7 8 -14 10 -16 44 -2 35 6
-4 8 0 4 10 -4 12 -2 14 10 10 11 -4 14 -2 9 5 -4 7 -2 12 3 12 6 0 11 5 11
11 0 5 -6 7 -12 4 -7 -4 -6 -1 3 7 9 7 16 21 17 31 5 48 5 47 21 34 12 -10 14
-9 9 5 -4 10 -1 19 8 22 8 3 14 11 14 18 0 9 -3 8 -10 -2 -8 -13 -10 -12 -10
3 0 9 4 17 9 17 6 0 8 8 6 19 -3 15 1 18 18 15 12 -2 16 -1 9 2 -10 5 -10 9 0
22 11 13 11 14 -1 7 -9 -5 -5 5 7 22 26 37 28 50 5 32 -10 -7 -4 2 12 20 17
19 24 30 16 26 -10 -6 -12 -4 -5 6 11 17 12 32 3 39 -4 3 0 14 8 25 15 20 15
20 9 0 -3 -11 -1 -27 5 -35 8 -12 9 -10 4 8 -4 13 -2 22 5 22 6 0 8 5 4 11 -3
6 0 15 7 20 12 7 12 9 0 9 -11 0 -11 3 0 17 12 15 12 16 -1 8 -10 -6 -9 -2 3
12 14 16 15 23 6 29 -8 5 -10 3 -4 -6 6 -9 4 -11 -4 -5 -9 5 -10 10 -2 18 7 7
15 6 27 -4 12 -9 15 -10 10 -1 -4 6 -4 18 1 25 12 18 11 57 -2 50 -5 -3 -4 0
3 8 14 15 16 33 3 25 -13 -9 -7 19 8 38 7 9 17 14 21 11 5 -3 12 0 16 6 4 8 3
9 -4 5 -16 -10 -15 16 1 33 10 11 9 13 -3 7 -9 -4 -8 -1 3 7 17 14 17 15 0 21
-14 6 -15 9 -3 16 8 5 18 6 24 3 5 -3 6 -1 2 6 -4 6 -12 9 -17 6 -5 -4 -9 -1
-9 4 0 6 4 11 10 11 5 0 7 6 4 14 -3 7 2 21 11 30 9 9 13 16 9 16 -3 0 0 8 7
17 12 15 12 16 -1 8 -13 -8 -13 -7 -1 8 10 13 11 17 1 17 -9 0 -9 5 3 18 11
12 13 22 7 32 -6 9 -5 17 2 21 12 8 17 26 20 76 0 18 4 30 8 28 4 -2 7 2 7 10
0 8 -3 15 -7 15 -4 0 -7 7 -7 15 0 8 4 12 8 10 4 -3 9 2 13 10 3 8 0 17 -6 21
-7 5 -8 2 -3 -6 5 -9 4 -11 -3 -6 -9 5 -9 13 -2 27 6 10 13 19 16 19 3 0 2 -6
-2 -12 -4 -7 -3 -9 1 -5 14 12 15 39 1 34 -6 -3 -12 3 -12 13 0 13 6 17 21 14
19 -3 19 -2 3 10 -19 14 -25 32 -8 21 6 -3 10 -1 10 4 0 6 -5 11 -11 11 -5 0
-7 5 -4 10 4 6 12 7 18 4 7 -4 9 -4 5 1 -4 4 -2 15 5 24 10 14 10 14 -4 3 -14
-10 -18 -10 -23 3 -3 9 -2 14 3 10 14 -8 19 18 8 40 -9 18 -9 19 8 5 17 -14
18 -14 6 8 -9 16 -9 22 0 22 8 0 8 4 -1 15 -10 12 -10 15 1 15 12 0 12 2 0 9
-9 6 -10 11 -2 15 6 4 8 13 4 19 -14 23 -10 67 7 68 12 0 12 2 -2 7 -12 5 -15
11 -8 21 5 9 5 23 -2 34 -7 14 -7 17 1 13 6 -4 11 -3 11 3 0 5 -5 13 -10 16
-8 5 -7 11 1 21 6 8 8 14 3 14 -5 0 -2 5 6 10 13 8 12 10 -4 10 -19 0 -19 1
-1 20 18 20 18 21 -1 14 -16 -6 -17 -5 -6 7 6 7 12 17 12 22 0 4 -6 5 -12 1
-9 -5 -9 -2 1 9 11 14 11 17 0 17 -8 0 -6 6 7 16 10 8 14 13 7 10 -6 -4 -14
-2 -18 4 -3 5 0 10 7 10 11 0 10 2 0 9 -11 6 -10 10 4 15 15 6 15 8 1 24 -11
12 -13 22 -6 34 6 11 6 19 -1 23 -8 5 -7 11 1 21 6 8 7 14 2 14 -5 0 -10 7
-10 15 0 8 5 15 10 15 5 0 4 6 -2 14 -9 11 -9 15 1 19 10 4 10 6 -1 6 -11 1
-11 4 0 18 8 9 9 14 2 10 -16 -10 -21 11 -13 55 7 36 -2 53 -13 26 -4 -10 -6
-10 -6 -1 -1 6 8 18 19 26 18 13 19 15 5 21 -9 3 -13 2 -10 -4 3 -6 1 -10 -4
-10 -15 0 -14 13 2 29 10 11 9 13 -4 8 -13 -4 -15 0 -11 20 4 20 2 24 -8 18
-9 -5 -11 -4 -6 4 4 6 12 9 17 6 5 -4 9 -1 9 4 0 6 -4 11 -9 11 -5 0 -8 8 -7
18 2 9 -2 20 -8 24 -7 5 -7 8 3 8 11 0 11 3 1 15 -10 12 -10 15 0 15 10 0 10
3 1 14 -9 11 -9 15 1 19 10 4 10 6 1 6 -8 1 -13 15 -13 34 0 21 -7 36 -20 45
-11 7 -17 18 -14 27 3 8 11 12 16 9 6 -4 5 3 -1 15 -7 11 -9 21 -5 21 4 0 -1
9 -11 20 -18 20 -18 21 -1 14 14 -5 17 -3 14 7 -3 8 -10 13 -16 12 -7 -2 -9 4
-5 14 5 12 3 14 -7 8 -8 -5 -11 -4 -6 3 3 5 0 13 -6 16 -7 3 -2 3 12 0 l25 -6
-22 16 c-13 10 -20 23 -17 31 4 9 0 15 -7 15 -10 0 -10 3 -1 12 15 15 16 32 1
22 -8 -4 -8 0 0 15 9 17 9 20 -3 15 -11 -4 -13 0 -9 15 3 13 1 21 -6 21 -7 0
-9 -5 -5 -12 4 -7 3 -8 -5 -4 -9 6 -9 11 -1 21 8 9 6 17 -5 29 -9 9 -12 16 -7
16 5 0 9 7 9 15 0 8 -4 15 -9 15 -4 0 -8 5 -8 11 0 5 4 8 8 5 5 -3 9 1 9 9 0
8 -5 11 -10 8 -7 -4 -8 1 -3 12 5 15 4 16 -9 5 -13 -11 -14 -10 -9 5 5 13 4
16 -4 11 -8 -5 -10 -2 -6 9 4 8 1 22 -6 30 -10 12 -10 15 0 15 9 0 10 3 1 13
-9 12 -13 23 -20 67 -1 3 -6 -2 -12 -10 -8 -12 -9 -10 -4 9 6 18 4 22 -6 16
-11 -6 -12 -5 -2 5 10 11 9 17 -4 32 -16 18 -16 18 2 12 13 -5 16 -4 11 4 -4
7 -14 12 -23 12 -9 0 -13 3 -10 7 4 3 1 16 -7 29 -8 12 -12 25 -9 28 15 15 10
34 -8 31 -10 -2 -18 -1 -17 3 1 4 -4 18 -11 32 -9 16 -10 25 -3 28 14 4 -5 62
-21 62 -7 0 -7 -4 1 -12 7 -7 12 -16 12 -22 0 -5 -6 -1 -14 9 -8 11 -11 26 -8
34 4 10 1 12 -9 6 -12 -8 -12 -6 0 8 8 10 9 17 3 17 -6 0 -9 9 -7 19 3 15 -1
19 -16 16 -10 -2 -22 1 -25 7 -4 6 -2 8 4 4 6 -3 13 -2 16 3 3 5 -1 11 -9 15
-8 3 -15 13 -15 21 0 10 5 13 11 9 7 -4 1 7 -12 25 -28 38 -37 41 -15 4 l17
-28 -21 24 c-14 17 -18 27 -10 35 15 15 12 30 -4 17 -12 -10 -13 -8 -8 11 5
20 3 21 -10 10 -14 -11 -16 -10 -11 8 4 13 0 26 -8 31 -12 7 -12 9 1 9 13 0
13 1 0 10 -9 6 -17 5 -23 -3 -5 -7 -6 -3 -2 10 4 15 0 25 -12 32 -10 6 -12 11
-5 11 17 0 15 20 -2 20 -10 0 -13 8 -11 23 4 22 4 22 -11 2 -15 -19 -15 -19
-9 6 4 15 2 30 -4 33 -5 4 -7 14 -4 24 4 13 2 13 -11 -3 -15 -19 -16 -19 -9
-1 4 13 3 17 -5 12 -8 -5 -10 -2 -6 8 3 9 1 16 -5 16 -6 0 -11 5 -11 11 0 5 5
7 12 3 7 -4 8 -3 4 5 -6 9 -11 9 -24 -1 -13 -12 -14 -10 -3 9 10 19 9 22 -3
17 -11 -4 -14 0 -11 15 2 12 0 19 -6 16 -8 -6 -13 9 -10 29 1 5 -4 6 -12 3
-18 -7 -35 22 -30 53 3 19 1 22 -8 13 -10 -10 -17 -4 -35 25 -12 20 -21 39
-19 42 2 3 -6 17 -17 30 l-20 25 16 -27 c9 -16 13 -28 8 -28 -7 0 -20 20 -40
64 -3 5 1 5 8 1 9 -5 11 -4 6 3 -4 7 -13 12 -19 12 -7 0 -18 14 -26 30 -10 24
-16 28 -26 20 -11 -9 -12 -7 -8 11 5 17 3 20 -7 14 -10 -6 -12 -4 -7 9 4 10 3
15 -3 11 -10 -6 -33 29 -24 38 3 2 -6 13 -19 23 -13 11 -24 22 -25 27 -3 15
-21 42 -22 32 0 -6 5 -16 11 -22 8 -8 7 -13 -2 -18 -7 -5 -10 -4 -5 3 3 6 -4
18 -16 26 -12 9 -17 16 -10 16 7 0 0 14 -15 31 -16 17 -27 36 -25 42 2 6 -5 4
-14 -4 -12 -9 -15 -9 -10 -1 4 7 1 12 -8 12 -9 0 -15 3 -15 8 1 4 1 14 0 22
-1 12 -3 13 -10 1 -6 -10 -12 -5 -22 17 -11 25 -16 29 -28 19 -12 -9 -13 -9
-7 0 4 7 1 22 -7 34 -11 15 -16 17 -20 7 -3 -7 -6 -3 -6 10 -1 12 -6 22 -11
22 -6 0 -32 21 -57 47 -26 26 -41 43 -34 38 10 -5 12 -4 7 4 -6 9 -11 9 -24
-1 -12 -10 -14 -10 -8 0 4 7 2 12 -6 12 -10 0 -10 2 1 9 10 7 5 11 -18 16 -17
3 -33 11 -36 16 -4 5 2 6 12 4 10 -3 8 0 -4 6 -13 7 -23 16 -23 21 0 4 -5 8
-11 8 -5 0 -7 -5 -3 -12 4 -7 3 -8 -4 -4 -6 4 -8 14 -5 23 5 13 2 15 -16 10
-17 -4 -20 -2 -12 7 7 8 5 12 -10 13 -12 1 -17 -3 -13 -9 4 -6 3 -8 -4 -5 -5
4 -8 17 -5 30 4 18 3 19 -6 7 -9 -13 -11 -12 -11 3 0 10 -4 15 -10 12 -5 -3
-10 -1 -10 5 0 6 -4 9 -9 5 -6 -3 -8 4 -6 16 4 17 2 19 -10 9 -12 -10 -15 -9
-15 5 0 12 -5 15 -16 11 -11 -4 -15 -2 -11 8 3 8 -1 17 -9 20 -10 4 -12 2 -8
-6 4 -7 3 -8 -4 -4 -7 4 -12 13 -12 21 0 7 -7 15 -15 19 -8 3 -15 1 -15 -3 0
-5 6 -12 13 -14 9 -4 9 -6 0 -6 -14 -1 -35 33 -27 42 3 3 -5 3 -18 0 -16 -3
-19 -2 -10 5 10 7 9 12 -4 23 -12 9 -15 10 -10 2 10 -17 -2 -16 -19 1 -8 7
-11 16 -8 19 3 4 -5 4 -17 2 -28 -5 -51 11 -43 31 4 10 0 12 -11 8 -11 -4 -16
0 -17 12 0 11 -3 14 -6 6 -3 -8 -11 -4 -25 13 -11 15 -27 24 -34 21 -8 -3 -14
-1 -14 5 0 6 -4 7 -10 4 -5 -3 -10 -1 -10 5 0 6 -5 8 -11 4 -8 -4 -9 1 -5 17
3 13 3 18 0 11 -5 -10 -9 -10 -22 0 -12 10 -14 10 -8 1 4 -7 2 -13 -3 -13 -6
0 -11 7 -11 15 0 8 -3 14 -7 14 -19 -3 -33 2 -33 11 0 5 8 7 18 4 14 -5 14 -4
3 4 -10 7 -21 7 -34 0 -14 -7 -17 -7 -13 1 4 7 -1 11 -12 11 -12 0 -22 9 -27
23 -4 14 -8 17 -12 9 -4 -10 -9 -8 -20 8 -12 18 -17 19 -31 8 -13 -11 -15 -10
-9 5 4 11 3 16 -3 12 -6 -3 -10 0 -10 7 0 9 -3 9 -10 -2 -6 -9 -10 -11 -10 -3
0 7 -7 10 -15 7 -8 -4 -15 -1 -15 5 0 6 5 11 12 11 6 0 8 3 5 6 -4 4 -14 1
-24 -7 -9 -8 -14 -9 -11 -4 3 6 0 16 -8 23 -11 10 -14 10 -15 0 0 -7 -4 -4 -9
7 l-9 20 -1 -20 c-1 -19 -1 -19 -11 -2 -6 9 -14 15 -20 12 -5 -4 -9 1 -9 10 0
9 -4 14 -9 11 -5 -3 -14 0 -20 8 -7 8 -21 12 -33 8 -17 -4 -20 -2 -15 12 4 10
3 15 -3 11 -6 -3 -10 0 -10 7 0 9 -3 9 -10 -2 -8 -12 -10 -12 -10 -1 0 10 -3
11 -14 2 -10 -9 -16 -8 -26 4 -7 9 -20 13 -29 10 -11 -3 -9 0 4 11 14 12 15
15 4 11 -9 -3 -21 -1 -27 5 -8 8 -16 7 -28 -3 -12 -9 -15 -10 -10 -1 4 7 2 12
-4 12 -6 0 -8 5 -4 12 4 7 3 8 -4 4 -6 -4 -9 -14 -6 -24 3 -9 -2 -4 -11 11
-12 21 -21 26 -37 21 -15 -4 -18 -3 -13 6 6 9 3 9 -14 1 -17 -9 -20 -9 -15 3
4 11 0 13 -14 9 -15 -3 -22 1 -27 17 -6 18 -9 20 -16 9 -8 -12 -11 -12 -19 1
-9 13 -10 13 -10 0 0 -13 -1 -13 -10 0 -7 11 -10 11 -10 2 0 -7 -5 -10 -10 -7
-6 4 -8 11 -5 16 3 5 -1 6 -9 3 -9 -3 -16 -11 -16 -17 0 -6 -3 -7 -6 -4 -4 4
-1 14 7 24 12 15 12 16 -2 11 -9 -4 -27 1 -40 9 -12 9 -19 11 -15 5 4 -7 2
-12 -3 -12 -6 0 -11 5 -11 11 0 8 -6 7 -17 -2 -10 -8 -14 -9 -10 -2 4 6 3 14
-3 18 -5 3 -10 1 -10 -5 0 -6 -5 -8 -10 -5 -6 4 -7 12 -4 18 4 7 4 9 -1 5 -4
-4 -14 -3 -22 3 -7 6 -13 8 -13 3 0 -5 -5 -2 -11 6 -9 13 -10 13 -6 0 2 -8 9
-14 15 -13 5 1 13 -4 16 -13 6 -17 -7 -12 -36 14 -10 8 -18 11 -18 6 0 -5 -5
-2 -10 6 -9 13 -11 13 -20 0 -8 -12 -12 -12 -18 -2 -5 7 -16 10 -25 6 -10 -3
-17 -1 -17 6 0 6 6 8 13 4 6 -4 8 -3 4 1 -12 13 -38 15 -30 2 4 -6 -8 -1 -25
12 -27 19 -43 22 -96 19 -55 -2 -63 -1 -53 11 10 12 9 12 -11 2 -13 -7 -28
-10 -35 -7 -7 2 -5 5 5 5 26 1 29 16 5 19 -112 13 -149 13 -142 0 6 -10 5 -10
-5 -1 -7 6 -19 9 -28 6 -9 -4 -13 -2 -9 3 3 6 -7 9 -24 8 -16 -1 -29 3 -29 8
0 6 -11 7 -26 4 -14 -4 -23 -3 -21 2 3 4 -10 6 -30 4 -23 -3 -38 0 -44 9 -7
12 -9 12 -9 0 0 -9 -4 -10 -12 -4 -15 11 -28 11 -45 0 -8 -5 -13 -3 -13 5 0 9
-3 9 -10 -2 -8 -12 -10 -12 -10 -1 0 10 -3 11 -14 2 -11 -9 -16 -9 -21 0 -6 8
-10 7 -16 -2 -5 -8 -9 -9 -9 -4 0 6 -9 11 -20 12 -11 1 -18 -2 -16 -6 6 -9
-46 -7 -62 3 -7 4 -12 2 -12 -5 0 -7 -6 -5 -13 6 -11 14 -16 15 -22 5 -6 -9
-4 -11 5 -5 9 6 11 4 5 -4 -5 -9 -10 -10 -18 -2 -15 15 -30 14 -21 -1 5 -7 3
-8 -7 -3 -19 12 -49 14 -49 3 0 -5 -7 -2 -16 6 -19 19 -25 20 -18 3z m529 -37
c-3 -5 -12 -10 -18 -10 -7 0 -6 4 3 10 19 12 23 12 15 0z m-1199 -42 c4 -7 4
-10 -1 -6 -4 4 -15 2 -24 -5 -14 -11 -14 -10 -2 6 16 20 18 21 27 5z m-226
-42 c0 -3 -4 -8 -10 -11 -5 -3 -10 -1 -10 4 0 6 5 11 10 11 6 0 10 -2 10 -4z
m2640 -246 c0 -5 -5 -10 -11 -10 -5 0 -7 5 -4 10 3 6 8 10 11 10 2 0 4 -4 4
-10z m-1901 -94 c-3 -3 -11 5 -18 17 -13 21 -12 21 5 5 10 -10 16 -20 13 -22z
m2136 -16 c3 -5 1 -10 -4 -10 -6 0 -11 5 -11 10 0 6 2 10 4 10 3 0 8 -4 11
-10z m265 -155 c11 -13 10 -14 -4 -9 -9 3 -16 10 -16 15 0 13 6 11 20 -6z
m-2265 -15 c10 -11 16 -20 13 -20 -3 0 -13 9 -23 20 -10 11 -16 20 -13 20 3 0
13 -9 23 -20z m-2499 -312 c4 -7 3 -8 -4 -4 -7 4 -12 2 -12 -5 0 -7 -3 -10 -6
-6 -6 5 3 27 11 27 2 0 7 -5 11 -12z m3918 -173 c3 -8 1 -15 -3 -15 -5 0 -11
7 -15 15 -3 8 -1 15 3 15 5 0 11 -7 15 -15z m1667 -192 c13 -16 12 -17 -3 -4
-10 7 -18 15 -18 17 0 8 8 3 21 -13z m98 -107 c9 -11 9 -16 0 -22 -8 -4 -9 -3
-5 4 4 7 2 12 -3 12 -6 0 -11 5 -11 10 0 14 5 13 19 -4z m-1274 -514 c-3 -3
-11 0 -18 7 -9 10 -8 11 6 5 10 -3 15 -9 12 -12z m10 -30 c-3 -3 -11 0 -18 7
-9 10 -8 11 6 5 10 -3 15 -9 12 -12z m-5335 -106 c0 -2 -7 -7 -16 -10 -8 -3
-12 -2 -9 4 6 10 25 14 25 6z m4390 -350 c0 -2 -7 -7 -16 -10 -8 -3 -12 -2 -9
4 6 10 25 14 25 6z m5 -26 c3 -5 1 -10 -4 -10 -6 0 -11 5 -11 10 0 6 2 10 4
10 3 0 8 -4 11 -10z m15 -30 c0 -5 -2 -10 -4 -10 -3 0 -8 5 -11 10 -3 6 -1 10
4 10 6 0 11 -4 11 -10z m-1321 -33 c0 -9 -2 -8 -6 1 -2 6 -10 9 -15 6 -7 -4
-8 -2 -4 5 9 13 26 5 25 -12z m2053 -34 c-9 -4 -10 -8 -2 -18 8 -10 8 -15 -1
-21 -7 -4 -9 -3 -5 4 3 6 2 13 -4 17 -13 8 -3 25 13 24 8 0 8 -2 -1 -6z
m-2431 -126 c-10 -9 -11 -8 -5 6 3 10 9 15 12 12 3 -3 0 -11 -7 -18z m-3101
-381 c0 -3 -4 -8 -10 -11 -5 -3 -10 -1 -10 4 0 6 5 11 10 11 6 0 10 -2 10 -4z
m2018 -261 c-3 -3 -9 2 -12 12 -6 14 -5 15 5 6 7 -7 10 -15 7 -18z m1660 -559
c-7 -8 -15 -12 -17 -11 -5 6 10 25 20 25 5 0 4 -6 -3 -14z m-2342 -771 c-1 -8
-5 -17 -8 -21 -5 -4 -4 16 1 34 3 9 9 -1 7 -13z m1824 -75 c0 -5 -5 -10 -11
-10 -5 0 -7 5 -4 10 3 6 8 10 11 10 2 0 4 -4 4 -10z m1290 -115 c7 -9 8 -15 2
-15 -5 0 -12 7 -16 15 -3 8 -4 15 -2 15 2 0 9 -7 16 -15z m80 -125 c0 -5 -2
-10 -4 -10 -3 0 -8 5 -11 10 -3 6 -1 10 4 10 6 0 11 -4 11 -10z m3225 -250
c-3 -5 -12 -10 -18 -10 -7 0 -6 4 3 10 19 12 23 12 15 0z m-5930 -191 c-4 -5
-12 -9 -18 -8 -9 0 -8 2 1 6 6 2 9 10 6 15 -4 7 -2 8 5 4 6 -4 9 -12 6 -17z
m3209 5 c3 -8 2 -12 -4 -9 -6 3 -10 10 -10 16 0 14 7 11 14 -7z m2396 -579 c0
-1 -6 -7 -13 -13 -10 -8 -13 -6 -13 7 0 11 6 17 13 14 7 -3 13 -6 13 -8z
m-6925 -203 c-3 -3 -11 0 -18 7 -9 10 -8 11 6 5 10 -3 15 -9 12 -12z m6001
-148 c1 -9 0 -13 -4 -10 -3 4 -7 14 -8 22 -1 9 0 13 4 10 3 -4 7 -14 8 -22z
m-4741 -23 c3 -5 2 -12 -3 -15 -5 -3 -9 1 -9 9 0 17 3 19 12 6z m3962 -16 c0
-8 -4 -12 -9 -9 -5 3 -6 10 -3 15 9 13 12 11 12 -6z m-3452 -55 c3 -5 1 -10
-4 -10 -6 0 -11 5 -11 10 0 6 2 10 4 10 3 0 8 -4 11 -10z m55 -174 c0 -3 -4
-8 -10 -11 -5 -3 -10 -1 -10 4 0 6 5 11 10 11 6 0 10 -2 10 -4z m3501 -153
c12 -16 12 -17 -2 -6 -9 7 -20 9 -24 5 -5 -4 -5 -1 -1 6 9 16 11 15 27 -5z
m-3956 -92 c-8 -33 -11 -35 -30 -27 -13 5 -14 10 -4 27 6 13 7 19 1 15 -6 -3
-14 -1 -18 5 -4 8 -3 9 4 5 7 -4 12 -3 12 2 0 6 9 8 21 5 16 -5 19 -11 14 -32z
m2985 -21 c0 -5 -2 -10 -4 -10 -3 0 -8 5 -11 10 -3 6 -1 10 4 10 6 0 11 -4 11
-10z m-1985 -40 c3 -5 1 -10 -4 -10 -6 0 -11 5 -11 10 0 6 2 10 4 10 3 0 8 -4
11 -10z m-381 -88 c3 -5 -1 -9 -9 -9 -8 0 -12 4 -9 9 3 4 7 8 9 8 2 0 6 -4 9
-8z m3776 -27 c11 -13 10 -14 -4 -9 -9 3 -16 10 -16 15 0 13 6 11 20 -6z m161
-15 c-7 -4 -9 -15 -4 -25 6 -17 5 -18 -9 -5 -11 11 -13 19 -5 32 6 9 15 14 20
11 5 -3 4 -9 -2 -13z m-5186 -10 c3 -5 1 -10 -4 -10 -6 0 -11 5 -11 10 0 6 2
10 4 10 3 0 8 -4 11 -10z m3952 -155 c0 -8 -4 -12 -9 -9 -5 3 -6 10 -3 15 9
13 12 11 12 -6z m-2367 -99 c0 -11 -19 -15 -25 -6 -3 5 1 10 9 10 9 0 16 -2
16 -4z m669 -415 c7 -5 9 -11 5 -14 -5 -3 -15 1 -22 9 -14 16 -5 18 17 5z
m-173 -60 c0 -11 -5 -17 -13 -14 -10 4 -11 9 -2 19 15 18 15 18 15 -5z m264
-177 c0 -2 -9 0 -20 6 -11 6 -20 13 -20 16 0 2 9 0 20 -6 11 -6 20 -13 20 -16z"/>
<path d="M4016 8522 c-3 -5 1 -9 9 -9 8 0 12 4 9 9 -3 4 -7 8 -9 8 -2 0 -6 -4
-9 -8z"/>
<path d="M3275 8360 c-3 -5 -1 -10 4 -10 6 0 11 5 11 10 0 6 -2 10 -4 10 -3 0
-8 -4 -11 -10z"/>
<path d="M2604 8072 c3 -5 0 -12 -6 -15 -7 -2 -10 -7 -7 -11 3 -4 12 0 18 8 9
11 9 16 0 22 -7 4 -9 3 -5 -4z"/>
<path d="M2533 8035 c0 -8 4 -12 9 -9 5 3 6 10 3 15 -9 13 -12 11 -12 -6z"/>
<path d="M6750 7840 c0 -5 5 -10 10 -10 6 0 10 5 10 10 0 6 -4 10 -10 10 -5 0
-10 -4 -10 -10z"/>
<path d="M4630 7599 c0 -5 5 -7 10 -4 6 3 10 8 10 11 0 2 -4 4 -10 4 -5 0 -10
-5 -10 -11z"/>
<path d="M4870 7566 c0 -2 7 -7 16 -10 8 -3 12 -2 9 4 -6 10 -25 14 -25 6z"/>
<path d="M5777 7543 c18 -28 28 -31 14 -4 -6 10 -8 20 -6 23 3 3 -1 5 -9 5
-12 0 -12 -4 1 -24z"/>
<path d="M5844 7546 c11 -9 24 -16 30 -16 12 0 7 5 -24 19 -24 11 -24 11 -6
-3z"/>
<path d="M1800 7509 c0 -5 5 -7 10 -4 6 3 10 8 10 11 0 2 -4 4 -10 4 -5 0 -10
-5 -10 -11z"/>
<path d="M5930 7390 c0 -5 5 -10 11 -10 5 0 7 5 4 10 -3 6 -8 10 -11 10 -2 0
-4 -4 -4 -10z"/>
<path d="M5845 7300 c-3 -6 1 -7 9 -4 18 7 21 14 7 14 -6 0 -13 -4 -16 -10z"/>
<path d="M5896 7134 c-7 -18 10 -54 25 -54 6 0 3 7 -6 16 -9 9 -13 24 -10 35
8 23 0 26 -9 3z"/>
<path d="M6180 6859 c0 -5 5 -7 10 -4 6 3 10 8 10 11 0 2 -4 4 -10 4 -5 0 -10
-5 -10 -11z"/>
<path d="M7780 6851 c0 -6 4 -13 10 -16 6 -3 7 1 4 9 -7 18 -14 21 -14 7z"/>
<path d="M7835 6760 c3 -5 8 -10 11 -10 2 0 4 5 4 10 0 6 -5 10 -11 10 -5 0
-7 -4 -4 -10z"/>
<path d="M5147 6739 c7 -7 15 -10 18 -7 3 3 -2 9 -12 12 -14 6 -15 5 -6 -5z"/>
<path d="M6096 6255 c-9 -26 -7 -32 5 -12 6 10 9 21 6 23 -2 3 -7 -2 -11 -11z"/>
<path d="M5355 6200 c-3 -5 -1 -10 4 -10 6 0 11 5 11 10 0 6 -2 10 -4 10 -3 0
-8 -4 -11 -10z"/>
<path d="M5686 6185 c4 -8 11 -15 16 -15 6 0 5 6 -2 15 -7 8 -14 15 -16 15 -2
0 -1 -7 2 -15z"/>
<path d="M4739 6148 c15 -20 41 -24 41 -7 0 5 -5 7 -10 4 -6 -4 -19 -1 -28 7
-15 12 -16 11 -3 -4z"/>
<path d="M4873 6093 c0 -11 7 -20 14 -20 10 0 10 4 1 16 -7 9 -13 18 -15 20
-1 2 -1 -5 0 -16z"/>
<path d="M8210 6062 c6 -13 14 -21 18 -18 3 4 -2 14 -12 24 -18 16 -18 16 -6
-6z"/>
<path d="M5170 5960 c0 -5 5 -10 11 -10 5 0 7 5 4 10 -3 6 -8 10 -11 10 -2 0
-4 -4 -4 -10z"/>
<path d="M6453 5945 c0 -8 4 -12 9 -9 5 3 6 10 3 15 -9 13 -12 11 -12 -6z"/>
<path d="M3981 5884 c0 -11 3 -14 6 -6 3 7 2 16 -1 19 -3 4 -6 -2 -5 -13z"/>
<path d="M682 5830 c-7 -11 -8 -20 -3 -20 9 0 24 30 18 36 -1 2 -8 -6 -15 -16z"/>
<path d="M3567 5833 c-12 -12 -7 -19 12 -19 15 0 17 3 9 13 -12 15 -13 15 -21
6z"/>
<path d="M2630 5479 c0 -5 5 -7 10 -4 6 3 10 8 10 11 0 2 -4 4 -10 4 -5 0 -10
-5 -10 -11z"/>
<path d="M6521 5293 c7 -12 15 -20 18 -17 3 2 -3 12 -13 22 -17 16 -18 16 -5
-5z"/>
<path d="M8445 5260 c4 -6 11 -8 16 -5 14 9 11 15 -7 15 -8 0 -12 -5 -9 -10z"/>
<path d="M2558 5233 c7 -3 16 -2 19 1 4 3 -2 6 -13 5 -11 0 -14 -3 -6 -6z"/>
<path d="M6520 5204 c0 -6 7 -19 16 -30 14 -18 14 -18 3 6 -14 31 -19 36 -19
24z"/>
<path d="M2210 4455 c-7 -9 -8 -15 -2 -15 5 0 12 7 16 15 3 8 4 15 2 15 -2 0
-9 -7 -16 -15z"/>
<path d="M5263 4444 c4 -4 0 -16 -10 -26 -21 -24 -12 -23 16 1 20 17 20 19 4
25 -10 4 -14 4 -10 0z"/>
<path d="M6085 4230 c-3 -10 -4 -34 0 -52 3 -18 2 -75 -3 -126 -4 -51 -5 -95
-2 -97 4 -2 7 -24 9 -49 1 -25 8 -58 16 -73 8 -15 15 -43 15 -60 0 -18 5 -33
10 -33 6 0 10 -6 10 -13 0 -7 8 -17 19 -24 10 -6 28 -32 40 -56 30 -62 54 -82
78 -66 25 15 41 54 44 104 4 63 -11 168 -28 194 -8 12 -13 32 -10 42 3 10 1
17 -4 13 -5 -3 -9 4 -9 16 0 11 -16 51 -35 89 -19 38 -31 72 -27 76 4 5 2 6
-3 2 -6 -3 -21 20 -35 54 -29 74 -71 103 -85 59z"/>
<path d="M4907 4003 c3 -7 6 -13 8 -13 2 0 5 6 8 13 3 8 -1 14 -8 14 -7 0 -11
-6 -8 -14z"/>
<path d="M8365 3410 c-3 -5 -1 -10 4 -10 6 0 11 5 11 10 0 6 -2 10 -4 10 -3 0
-8 -4 -11 -10z"/>
<path d="M5550 3196 c0 -2 8 -10 18 -17 15 -13 16 -12 3 4 -13 16 -21 21 -21
13z"/>
<path d="M5595 3160 c3 -5 8 -10 11 -10 2 0 4 5 4 10 0 6 -5 10 -11 10 -5 0
-7 -4 -4 -10z"/>
<path d="M6878 3163 c7 -3 16 -2 19 1 4 3 -2 6 -13 5 -11 0 -14 -3 -6 -6z"/>
<path d="M693 3145 c0 -8 4 -12 9 -9 5 3 6 10 3 15 -9 13 -12 11 -12 -6z"/>
<path d="M4020 3020 c0 -5 5 -10 11 -10 5 0 7 5 4 10 -3 6 -8 10 -11 10 -2 0
-4 -4 -4 -10z"/>
<path d="M2410 3006 c0 -2 7 -7 16 -10 8 -3 12 -2 9 4 -6 10 -25 14 -25 6z"/>
<path d="M6933 2915 c0 -8 4 -12 9 -9 5 3 6 10 3 15 -9 13 -12 11 -12 -6z"/>
<path d="M810 2856 c0 -2 7 -7 16 -10 8 -3 12 -2 9 4 -6 10 -25 14 -25 6z"/>
<path d="M1730 2840 c0 -5 5 -10 11 -10 5 0 7 5 4 10 -3 6 -8 10 -11 10 -2 0
-4 -4 -4 -10z"/>
<path d="M910 2639 c0 -5 5 -7 10 -4 6 3 10 8 10 11 0 2 -4 4 -10 4 -5 0 -10
-5 -10 -11z"/>
<path d="M2395 2569 c-4 -6 -5 -12 -2 -15 2 -3 7 2 10 11 7 17 1 20 -8 4z"/>
<path d="M7945 2410 c-3 -5 -1 -10 4 -10 6 0 11 5 11 10 0 6 -2 10 -4 10 -3 0
-8 -4 -11 -10z"/>
<path d="M6324 2009 c-4 -7 -3 -9 4 -5 5 3 13 0 15 -6 4 -9 6 -10 6 -1 1 17
-16 25 -25 12z"/>
<path d="M5186 1857 c3 -10 9 -15 12 -12 3 3 0 11 -7 18 -10 9 -11 8 -5 -6z"/>
<path d="M7046 1762 c-3 -5 1 -9 9 -9 8 0 15 4 15 9 0 4 -4 8 -9 8 -6 0 -12
-4 -15 -8z"/>
<path d="M7046 1714 c-5 -14 -4 -15 9 -4 17 14 19 20 6 20 -5 0 -12 -7 -15
-16z"/>
<path d="M3365 1480 c-3 -5 1 -10 10 -10 9 0 13 5 10 10 -3 6 -8 10 -10 10 -2
0 -7 -4 -10 -10z"/>
<path d="M3540 1399 c0 -5 5 -7 10 -4 6 3 10 8 10 11 0 2 -4 4 -10 4 -5 0 -10
-5 -10 -11z"/>
<path d="M6903 1265 c-15 -13 -25 -25 -22 -25 3 0 16 9 29 20 12 11 27 17 33
13 6 -3 7 -1 3 5 -10 16 -11 16 -43 -13z"/>
<path d="M2193 1185 c0 -8 4 -12 9 -9 5 3 6 10 3 15 -9 13 -12 11 -12 -6z"/>
<path d="M5885 1191 c-3 -5 -2 -12 3 -15 5 -3 9 1 9 9 0 17 -3 19 -12 6z"/>
<path d="M3365 1040 c3 -5 11 -10 16 -10 6 0 7 5 4 10 -3 6 -11 10 -16 10 -6
0 -7 -4 -4 -10z"/>
<path d="M5990 1036 c0 -2 7 -7 16 -10 8 -3 12 -2 9 4 -6 10 -25 14 -25 6z"/>
<path d="M3380 1016 c0 -2 8 -10 18 -17 15 -13 16 -12 3 4 -13 16 -21 21 -21
13z"/>
<path d="M6389 923 c-13 -16 -12 -17 4 -4 9 7 17 15 17 17 0 8 -8 3 -21 -13z"/>
<path d="M3899 643 c-13 -16 -12 -17 4 -4 16 13 21 21 13 21 -2 0 -10 -8 -17
-17z"/>
<path d="M3410 621 c0 -5 7 -12 16 -15 14 -5 15 -4 4 9 -14 17 -20 19 -20 6z"/>
<path d="M3757 533 c3 -7 6 -13 8 -13 2 0 5 6 8 13 3 8 -1 14 -8 14 -7 0 -11
-6 -8 -14z"/>
<path d="M4055 490 c-2 -3 5 -7 16 -7 10 -1 19 2 19 6 0 9 -29 10 -35 1z"/>
</g>
</svg>
